<?xml version="1.0" encoding="UTF-8"?>
<svg width="295px" height="393px" viewBox="0 0 295 393" version="1.1" xmlns="http://www.w3.org/2000/svg" xmlns:xlink="http://www.w3.org/1999/xlink">
    <!-- Generator: Sketch 43.2 (39069) - http://www.bohemiancoding.com/sketch -->
    <title>Group 4</title>
    <desc>Created with Sketch.</desc>
    <defs></defs>
    <g id="Page-1" stroke="none" stroke-width="1" fill="none" fill-rule="evenodd">
        <g id="512---Play-Store" transform="translate(-110.000000, -119.000000)" fill-rule="nonzero" fill="#FFFFFF">
            <g id="Group-4" transform="translate(110.000000, 119.000000)">
                <g id="Group-3">
                    <g id="Group-2">
                        <g id="noun_1021725_cc">
                            <path d="M294.184078,262.945397 C293.867756,261.890856 293.801856,261.592069 293.683235,261.306464 C293.107704,260.229954 293.01105,260.00147 292.874856,259.79935 C292.549747,259.316018 292.180704,258.859051 291.772121,258.450416 L265.416328,232.091286 C261.98511,228.659634 256.423111,228.659634 252.991893,232.091286 C249.560675,235.522938 249.560675,241.085641 252.991893,244.517293 L264.353133,255.879972 L163.951575,255.879972 C161.653846,246.186983 154.417974,238.392168 145.038141,235.325211 L145.038141,220.728607 C202.520922,217.749528 248.251453,170.216094 248.251453,112.001039 C248.251453,84.3896411 237.9578,59.181718 221.0082,40.0022541 C216.997058,86.8853881 174.341882,120.454942 128.031427,113.965121 C114.877694,112.119675 105.251833,100.998661 105.32652,87.7070512 C105.370453,78.6204232 104.891577,68.988949 104.891577,62.5386734 C104.891577,60.8030747 104.729022,59.1070214 104.496174,57.4329376 L121.586362,57.4329376 C128.835413,57.4329376 134.766455,51.5011446 134.766455,44.2511754 C134.766455,37.0012063 128.835413,31.0694133 121.586362,31.0694133 L104.588435,31.0694133 L107.791197,25.5154975 C111.415723,19.2365849 109.245401,11.1341951 102.967283,7.50921049 C96.6891652,3.87983198 88.5921945,6.05042881 84.9632755,12.3337354 L82.9642946,15.791751 L82.9642946,13.1817621 C82.9642946,5.93618688 77.0332526,0 69.7842012,0 C62.5351499,0 56.6041078,5.93618688 56.6041078,13.1817621 L56.6041078,26.8468555 C45.2428673,30.3575982 36.1573896,39.1718031 32.2648687,50.3631191 L22.6214337,43.332846 C18.6937658,40.4767976 13.2020602,41.3423999 10.3463733,45.2573833 C7.49068642,49.1811545 8.35178586,54.6779493 12.270667,57.5339977 L25.3760732,67.0863814 L12.1696196,77.9261837 C8.41768632,81.0019282 7.86851576,86.5426623 10.9526576,90.2906766 C12.69243,92.4085464 15.2098278,93.5026327 17.7491925,93.5026327 C19.708633,93.5026327 21.685647,92.8523324 23.3199786,91.5077927 L30.2043807,85.8572106 L30.2043807,97.1627686 C30.2043807,102.000475 30.7271911,106.838182 30.7271911,111.992251 C30.7271911,168.019134 73.0924047,214.137726 127.52619,220.095882 C127.508617,220.30679 127.46029,235.281272 127.46029,235.281272 C118.027736,238.317471 110.734751,246.143044 108.428235,255.879972 L59.9913918,255.879972 L48.0282604,235.162636 C45.5943365,230.957654 40.2212517,229.516448 36.0255886,231.946286 C31.8211389,234.376124 30.3845087,239.749889 32.8096459,243.950478 L39.694048,255.879972 L31.4345228,255.879972 L19.4713913,235.162636 C17.0418608,230.957654 11.668776,229.516448 7.4687196,231.946286 C3.2642698,234.376124 1.82763962,239.749889 4.25277681,243.950478 L11.1371789,255.879972 L8.78672894,255.879972 C3.93645456,255.879972 0,259.816925 0,264.667814 C0,269.518702 3.93645456,273.455655 8.78672894,273.455655 L10.5924017,273.455655 L4.25277681,284.440457 C1.82763962,288.645439 3.2642698,294.019204 7.4687196,296.444648 C8.85262941,297.244342 10.3639468,297.622219 11.8532973,297.622219 C14.8891122,297.622219 17.8414531,296.049196 19.4713913,293.228298 L30.8853522,273.455655 L39.1492708,273.455655 L32.8096459,284.440457 C30.3845087,288.645439 31.8211389,294.019204 36.0255886,296.444648 C37.4094985,297.244342 38.9208158,297.622219 40.4101664,297.622219 C43.4459812,297.622219 46.3983222,296.049196 48.0282604,293.228298 L59.4422213,273.455655 L109.842898,273.455655 C113.045661,281.118653 119.499514,287.094385 127.469077,289.660435 L127.469077,394.292869 L145.042535,394.292869 L145.042535,289.607708 C152.954984,287.019688 159.360509,281.079108 162.550092,273.451261 L266.558602,273.451261 L253.00068,287.010901 C249.569462,290.442553 249.569462,296.005256 253.00068,299.436908 C254.718485,301.154931 256.963494,302.011746 259.212897,302.011746 C261.4623,302.011746 263.707309,301.154931 265.425114,299.436908 L291.785301,273.073384 C293.784282,271.07415 294.583874,268.363101 294.258765,265.7619 C294.3686,264.821601 294.3686,263.876908 294.184078,262.945397 Z M66.1069552,73.3389305 C61.2171405,73.3389305 57.2279656,69.3492505 57.2279656,64.4588168 C57.2279656,59.568383 61.2127472,55.578703 66.1069552,55.578703 C70.9923765,55.578703 74.9815514,59.568383 74.9815514,64.4588168 C74.9815514,69.3492505 70.9967698,73.3389305 66.1069552,73.3389305 Z M136.189905,273.451261 C130.131456,273.451261 125.206494,268.521282 125.206494,262.462066 C125.206494,256.402849 130.131456,251.477264 136.189905,251.477264 C142.248355,251.477264 147.173316,256.402849 147.173316,262.462066 C147.173316,268.521282 142.248355,273.451261 136.189905,273.451261 Z" id="Shape"></path>
                        </g>
                    </g>
                </g>
            </g>
        </g>
    </g>
</svg>