<?xml version="1.0" encoding="UTF-8"?>
<svg width="254px" height="254px" viewBox="0 0 254 254" version="1.1" xmlns="http://www.w3.org/2000/svg" xmlns:xlink="http://www.w3.org/1999/xlink">
    <!-- Generator: Sketch 43.2 (39069) - http://www.bohemiancoding.com/sketch -->
    <title>Group 6</title>
    <desc>Created with Sketch.</desc>
    <defs></defs>
    <g id="Page-1" stroke="none" stroke-width="1" fill="none" fill-rule="evenodd">
        <g id="Desktop-Landscape" transform="translate(-188.000000, -2504.000000)">
            <g id="Group-6" transform="translate(188.000000, 2504.000000)">
                <rect id="Rectangle-18" fill="#DA4756" x="0" y="0" width="254" height="254" rx="21"></rect>
                <path d="M214.567684,180.854427 C214.392403,180.270313 214.355886,180.104814 214.290156,179.946616 C213.971243,179.350333 213.917685,179.223775 213.842217,179.111819 C213.662068,178.8441 213.457574,178.590984 213.23117,178.36464 L198.626903,163.764212 C196.725597,161.863406 193.643583,161.863406 191.742277,163.764212 C189.840972,165.665018 189.840972,168.746221 191.742277,170.647027 L198.037766,176.940861 L142.403273,176.940861 C141.130055,171.571875 137.120515,167.254296 131.922964,165.555496 L131.922964,157.470379 C163.775312,155.820255 189.115505,129.491296 189.115505,97.245744 C189.115505,81.9516804 183.411588,67.988911 174.019479,57.3653293 C171.796826,83.3340846 148.160748,101.928395 122.499207,98.3336572 C115.210463,97.3114569 109.876582,91.1514831 109.917968,83.7892071 C109.942312,78.7560875 109.676957,73.4211755 109.676957,69.848342 C109.676957,68.886987 109.586882,67.9475362 109.457856,67.0202545 L118.927868,67.0202545 C122.944711,67.0202545 126.231219,63.7346107 126.231219,59.7188238 C126.231219,55.7030369 122.944711,52.417393 118.927868,52.417393 L109.50898,52.417393 L111.283694,49.3410569 C113.292116,45.8631421 112.089497,41.375196 108.610668,39.3673025 C105.131838,37.3569752 100.645146,38.5592775 98.6342903,42.0396262 L97.5266154,43.9550348 L97.5266154,42.5093515 C97.5266154,38.4959984 94.2401074,35.2079208 90.2232644,35.2079208 C86.2064214,35.2079208 82.9199134,38.4959984 82.9199134,42.5093515 L82.9199134,50.0785014 C76.6244249,52.0231158 71.5899816,56.9053391 69.4330586,63.1042538 L64.0894402,59.2101574 C61.9130416,57.6281808 58.8699787,58.1076414 57.287586,60.2761663 C55.7051932,62.4495589 56.1823455,65.4942555 58.3538752,67.0762322 L65.6158405,72.3673356 L58.2978828,78.3715455 C56.2188623,80.0752127 55.914556,83.1442474 57.6235401,85.2202876 C58.5875824,86.3933841 59.9825225,86.9994028 61.3896348,86.9994028 C62.4753996,86.9994028 63.5709022,86.6391989 64.4765178,85.894453 L68.2913014,82.764573 L68.2913014,89.0267668 C68.2913014,91.7063919 68.581001,94.3860169 68.581001,97.2408764 C68.581001,128.274391 92.0564055,153.819663 122.219245,157.11991 C122.209507,157.236733 122.182728,165.531158 122.182728,165.531158 C116.955963,167.212921 112.914776,171.547537 111.636689,176.940861 L84.7968746,176.940861 L78.1678664,165.465445 C76.8191809,163.136289 73.8418482,162.337999 71.5169481,163.683896 C69.1871791,165.029793 68.3911139,168.006343 69.7349305,170.333066 L73.5497141,176.940861 L68.9729475,176.940861 L62.3439393,165.465445 C60.9976883,163.136289 58.0203555,162.337999 55.693021,163.683896 C53.363252,165.029793 52.5671868,168.006343 53.9110034,170.333066 L57.725787,176.940861 L56.4233561,176.940861 C53.7357229,176.940861 51.5544554,179.121554 51.5544554,181.808481 C51.5544554,184.495408 53.7357229,186.676101 56.4233561,186.676101 L57.4239152,186.676101 L53.9110034,192.760627 C52.5671868,195.089784 53.363252,198.066333 55.693021,199.409797 C56.4598728,199.85275 57.2973238,200.062058 58.1226024,200.062058 C59.8048076,200.062058 61.4407582,199.190754 62.3439393,197.628248 L68.6686412,186.676101 L73.2478423,186.676101 L69.7349305,192.760627 C68.3911139,195.089784 69.1871791,198.066333 71.5169481,199.409797 C72.2838,199.85275 73.1212509,200.062058 73.9465295,200.062058 C75.6287347,200.062058 77.2646853,199.190754 78.1678664,197.628248 L84.4925683,186.676101 L112.420582,186.676101 C114.195297,190.920667 117.771504,194.230649 122.187597,195.651994 L122.187597,253.608317 L131.925398,253.608317 L131.925398,195.622788 C136.309843,194.189274 139.859272,190.898762 141.626683,186.673668 L199.25986,186.673668 L191.747146,194.184406 C189.845841,196.085212 189.845841,199.166416 191.747146,201.067221 C192.699016,202.018841 193.94302,202.493434 195.189459,202.493434 C196.435898,202.493434 197.679902,202.018841 198.631772,201.067221 L213.238474,186.46436 C214.346149,185.356976 214.789219,183.855315 214.609069,182.4145 C214.66993,181.893664 214.66993,181.370395 214.567684,180.854427 Z M88.1856295,75.8306476 C85.4760863,75.8306476 83.2656054,73.6207479 83.2656054,70.9119171 C83.2656054,68.2030863 85.4736518,65.9931866 88.1856295,65.9931866 C90.8927382,65.9931866 93.1032191,68.2030863 93.1032191,70.9119171 C93.1032191,73.6207479 90.8951727,75.8306476 88.1856295,75.8306476 Z M127.019981,186.673668 C123.662874,186.673668 120.933855,183.942933 120.933855,180.586708 C120.933855,177.230484 123.662874,174.502183 127.019981,174.502183 C130.377088,174.502183 133.106107,177.230484 133.106107,180.586708 C133.106107,183.942933 130.377088,186.673668 127.019981,186.673668 Z" id="Shape" fill="#FFFFFF" fill-rule="nonzero"></path>
            </g>
        </g>
    </g>
</svg>