<?xml version="1.0" encoding="UTF-8"?>
<svg width="867px" height="1787px" viewBox="0 0 867 1787" version="1.1" xmlns="http://www.w3.org/2000/svg" xmlns:xlink="http://www.w3.org/1999/xlink">
    <!-- Generator: Sketch 43.2 (39069) - http://www.bohemiancoding.com/sketch -->
    <title>Group 12</title>
    <desc>Created with Sketch.</desc>
    <defs>
        <path d="M9,99.0672788 C9,43.8333355 53.7680919,-0.518551896 108.993901,0.0045805836 L752.05974,6.09609169 C807.284846,6.61921752 852.240055,51.811256 852.470041,107.043117 L858.999136,1675.02307 C859.229107,1730.25145 814.648783,1775.0229 759.413693,1775.0229 L109.001843,1775.0229 C53.7723503,1775.0229 9,1730.24809 9,1675.01299 L9,99.0672788 Z" id="path-1"></path>
        <filter x="-0.9%" y="-0.5%" width="102.4%" height="101.1%" filterUnits="objectBoundingBox" id="filter-2">
            <feOffset dx="2" dy="2" in="SourceAlpha" result="shadowOffsetOuter1"></feOffset>
            <feGaussianBlur stdDeviation="3" in="shadowOffsetOuter1" result="shadowBlurOuter1"></feGaussianBlur>
            <feComposite in="shadowBlurOuter1" in2="SourceAlpha" operator="out" result="shadowBlurOuter1"></feComposite>
            <feColorMatrix values="0 0 0 0 0   0 0 0 0 0   0 0 0 0 0  0 0 0 0.5 0" type="matrix" in="shadowBlurOuter1"></feColorMatrix>
        </filter>
        <rect id="path-3" x="-48" y="464" width="113" height="17" rx="8"></rect>
        <rect id="path-4" x="-26.5" y="260.5" width="72" height="17" rx="8"></rect>
        <rect id="path-5" x="-47" y="613" width="113" height="17" rx="8"></rect>
        <rect id="path-6" x="777.5" y="452.5" width="152" height="17" rx="8"></rect>
        <rect id="path-7" x="51" y="216" width="755" height="1342"></rect>
        <linearGradient x1="-1.43509116%" y1="50%" x2="100%" y2="50%" id="linearGradient-8">
            <stop stop-color="#7EB1AC" offset="0%"></stop>
            <stop stop-color="#9ECAB1" offset="100%"></stop>
        </linearGradient>
        <radialGradient cx="100%" cy="50%" fx="100%" fy="50%" r="45.4248835%" gradientTransform="translate(1.000000,0.500000),scale(1.000000,0.011628),rotate(-90.000000),translate(-1.000000,-0.500000)" id="radialGradient-9">
            <stop stop-color="#000000" offset="0%"></stop>
            <stop stop-color="#EAEDED" offset="100%"></stop>
        </radialGradient>
        <radialGradient cx="100%" cy="50%" fx="100%" fy="50%" r="45.4248835%" gradientTransform="translate(1.000000,0.500000),scale(1.000000,0.007782),rotate(-90.000000),translate(-1.000000,-0.500000)" id="radialGradient-10">
            <stop stop-color="#000000" offset="0%"></stop>
            <stop stop-color="#EAEDED" offset="100%"></stop>
        </radialGradient>
    </defs>
    <g id="Page-1" stroke="none" stroke-width="1" fill="none" fill-rule="evenodd">
        <g id="A4" transform="translate(-1253.000000, -369.000000)">
            <g id="Group-12" transform="translate(1253.000000, 373.000000)">
                <g id="Rectangle-12">
                    <use fill="black" fill-opacity="1" filter="url(#filter-2)" xlink:href="#path-1"></use>
                    <use fill="#FFFFFF" fill-rule="evenodd" xlink:href="#path-1"></use>
                    <path stroke="#FFFFFF" stroke-width="15" d="M16.5,99.0672788 C16.5,48.0027955 57.8672168,7.02061399 108.922859,7.50424412 L751.988698,13.5957552 C803.112942,14.0800352 844.757206,55.9459072 844.970106,107.074347 L851.499201,1675.0543 C851.711882,1726.13036 810.492467,1767.5229 759.413693,1767.5229 L109.001843,1767.5229 C57.9142098,1767.5229 16.5,1726.10568 16.5,1675.01299 L16.5,99.0672788 Z"></path>
                </g>
                <circle id="Oval-14" stroke="#979797" stroke-width="4" cx="428.5" cy="73.5" r="6.5"></circle>
                <circle id="Oval-14" stroke="#979797" stroke-width="4" cx="319.5" cy="129.5" r="6.5"></circle>
                <rect id="Rectangle-14" stroke="#979797" stroke-width="4" x="364" y="122" width="128" height="13" rx="6.5"></rect>
                <g id="Rectangle-14" transform="translate(8.500000, 472.500000) rotate(90.000000) translate(-8.500000, -472.500000) ">
                    <use fill="#FFFFFF" fill-rule="evenodd" xlink:href="#path-3"></use>
                    <rect stroke="#FFFFFF" stroke-width="4" x="-46" y="466" width="109" height="13" rx="6.5"></rect>
                </g>
                <g id="Rectangle-14" transform="translate(9.500000, 269.000000) rotate(90.000000) translate(-9.500000, -269.000000) ">
                    <use fill="#FFFFFF" fill-rule="evenodd" xlink:href="#path-4"></use>
                    <rect stroke="#FFFFFF" stroke-width="4" x="-24.5" y="262.5" width="68" height="13" rx="6.5"></rect>
                </g>
                <g id="Rectangle-14" transform="translate(9.500000, 621.500000) rotate(90.000000) translate(-9.500000, -621.500000) ">
                    <use fill="#FFFFFF" fill-rule="evenodd" xlink:href="#path-5"></use>
                    <rect stroke="#FFFFFF" stroke-width="4" x="-45" y="615" width="109" height="13" rx="6.5"></rect>
                </g>
                <g id="Rectangle-14" transform="translate(853.500000, 461.000000) rotate(90.000000) translate(-853.500000, -461.000000) ">
                    <use fill="#FFFFFF" fill-rule="evenodd" xlink:href="#path-6"></use>
                    <rect stroke="#FFFFFF" stroke-width="4" x="779.5" y="454.5" width="148" height="13" rx="6.5"></rect>
                </g>
                <circle id="Oval-13" stroke="#979797" stroke-width="14" opacity="0.330785779" cx="427" cy="1657" r="72"></circle>
                <g id="Rectangle-13">
                    <use fill="#F2F2F2" fill-rule="evenodd" xlink:href="#path-7"></use>
                    <rect stroke="#979797" stroke-width="5" x="53.5" y="218.5" width="750" height="1337"></rect>
                </g>
                <text id="9-:-41-AM" font-family="AvenirNext-DemiBold, Avenir Next" font-size="25" font-weight="500" fill="#2C2D2D">
                    <tspan x="379.575904" y="255">9 : 41 AM</tspan>
                </text>
                <circle id="Oval-12" stroke="#2C2D2D" stroke-width="2" fill="#2C2D2D" cx="119.5" cy="248.5" r="6.5"></circle>
                <circle id="Oval-12" stroke="#2C2D2D" stroke-width="2" cx="135.5" cy="248.5" r="6.5"></circle>
                <text id="giffgaff" font-family="AvenirNext-DemiBold, Avenir Next" font-size="20" font-weight="500" letter-spacing="-0.74666667" fill="#000000">
                    <tspan x="168.126667" y="254">giffgaff</tspan>
                </text>
                <circle id="Oval-12" stroke="#2C2D2D" stroke-width="2" cx="151.5" cy="248.5" r="6.5"></circle>
                <g id="noun_996939_cc" transform="translate(240.000000, 238.000000)" fill-rule="nonzero" fill="#2C2D2D">
                    <path d="M5.0301,10.7703916 L8.4942,14.1509779 C9.86236127,12.9035828 11.6479274,12.212599 13.5,12.2138183 C15.3850425,12.2199891 17.1992149,12.9324108 18.5841,14.2103337 L21.9672,10.7595996 C17.28,6.03271431 9.2907,6.33488962 5.0301,10.7703916 Z M10.1196,15.9181639 L13.4838,19.1962264 L16.7994,15.845318 C15.1551,14.1779578 11.853,14.1941458 10.1196,15.9181639 Z M0,5.77640489 L3.429,9.17317918 C6.2505,6.52374919 9.6039,5.12618837 13.5,5.12618837 C17.3961,5.12618837 20.763,6.54263515 23.5899,9.18936714 L27,5.73863298 C19.17,-2.03968337 6.6663,-1.16823135 0,5.77640489 Z" id="Shape"></path>
                </g>
                <text id="100%" font-family="AvenirNext-DemiBold, Avenir Next" font-size="25" font-weight="500" letter-spacing="1" fill="#2C2D2D">
                    <tspan x="653.400904" y="257">100%</tspan>
                </text>
                <circle id="Oval-12" stroke="#2C2D2D" stroke-width="2" fill="#2C2D2D" cx="86.5" cy="248.5" r="6.5"></circle>
                <circle id="Oval-12" stroke="#2C2D2D" stroke-width="2" fill="#2C2D2D" cx="103.5" cy="248.5" r="6.5"></circle>
                <g id="noun_1000667_cc" transform="translate(730.000000, 239.000000)" fill-rule="nonzero" fill="#2C2D2D">
                    <path d="M46.0880625,18.4877778 L46.0880625,15.6201111 L47.5335937,15.6201111 C49.2309375,15.6201111 50.611125,14.6093889 50.611125,13.3672778 L50.611125,7.63272222 C50.611125,6.39061111 49.2309375,5.3795 47.5335937,5.3795 L46.0880625,5.3795 L46.0880625,2.51222222 C46.0880625,1.2705 44.7068125,0.259388889 43.0094687,0.259388889 L3.46640625,0.259388889 C1.7690625,0.259388889 0.388875,1.2705 0.388875,2.51222222 L0.388875,18.4877778 C0.388875,19.7295 1.7690625,20.7406111 3.46640625,20.7406111 L43.0094687,20.7406111 C44.7068125,20.7406111 46.0880625,19.7295 46.0880625,18.4877778 Z M3.46640625,18.6923333 C3.31234375,18.6923333 3.1864375,18.6005556 3.1864375,18.4877778 L3.1864375,2.51222222 C3.1864375,2.39983333 3.31234375,2.30766667 3.46640625,2.30766667 L43.0094687,2.30766667 C43.1640625,2.30766667 43.2894375,2.39983333 43.2894375,2.51222222 L43.2894375,18.4877778 C43.2894375,18.6005556 43.1640625,18.6923333 43.0094687,18.6923333 L3.46640625,18.6923333 L3.46640625,18.6923333 Z M4.79559375,3.67305556 L4.79559375,17.3953889 L41.448125,17.3953889 L41.448125,3.67305556 L4.79559375,3.67305556 Z" id="Shape"></path>
                </g>
                <rect id="Rectangle" fill="url(#linearGradient-8)" x="56" y="1472" width="745" height="81"></rect>
                <g id="Group-2" transform="translate(156.000000, 433.000000)">
                    <g id="Group" transform="translate(0.000000, 73.583732)">
                        <path d="M207.638181,21.0983273 C207.638181,21.0983273 210.715874,22.2859303 215.946498,18.1062867 C221.177123,13.9266432 230.846361,0.363590188 240.911724,0.363590188 C257.444578,-1.37181678 266.035663,9.60557491 266.035663,9.60557491 C266.035663,9.60557491 272.996987,15.0931944 271.729336,26.2497935 C270.983791,32.8113314 258.332189,46.2284385 254.916807,51.9894575 C251.501426,57.7504765 249.316147,61.2535183 249.316147,66.3659252 C249.316147,71.4783322 251.234376,79.0336218 251.234376,79.0336218 C251.234376,79.0336218 257.964875,103.797271 245.197569,103.797271 C232.525498,102.955796 235.829179,92.7021279 239.33143,88.2819858 C242.83368,83.8618437 246.126215,82.7521091 254.916807,82.6754926 C263.7074,82.5988762 276.943928,82.7702713 288.649852,90.7362963 C300.355776,98.7023213 308.462659,116.270371 316.114794,120.428866 C323.766929,124.587362 437.847276,144.098116 475.638364,163.472026 C504.141117,180.345852 498.483362,199.866803 498.483362,199.866803 C498.195207,202.054824 496.175356,203.907762 493.969203,204.001036 C493.969203,204.001036 475.900169,204.848676 461.176985,204.848676 C446.453802,204.848676 405.484825,205.823436 405.484825,205.823436" id="Path-32" stroke="#000000" stroke-width="4" stroke-linecap="round"></path>
                        <path d="M250.69518,81.8814539 C250.69518,81.8814539 221.637657,79.1982198 206.555118,88.1913828 C191.472579,97.1845458 194.957984,102.974688 181.118979,118.349208 C167.279975,133.723728 30.3846534,154.611946 17.9829183,167.24141 C6.88913973,174.543652 -3.06267957,192.670324 2.19910622,202.564261 C6.52535898,208.793855 23.0577717,207.990119 35.2603616,207.990119 C47.4629515,207.990119 60.2499139,207.357783 72.7128087,206.569489 C86.5643716,205.69336 101.011394,205.336823 101.011394,205.336823" id="Path-33" stroke="#000000" stroke-width="4" stroke-linecap="round"></path>
                        <text id="weather-watcher" font-family="SwistblnkMonthoers, Swistblnk Monthoers" font-size="55" font-weight="normal" letter-spacing="-0.439999998" fill="#000000">
                            <tspan x="96.2146879" y="207.148325">weather watcher</tspan>
                        </text>
                        <path d="M470.461155,227.711003 C470.011539,228.027574 469.572051,228.721752 469.526684,229.281245 C469.526684,229.281245 468.798686,231.282139 471.384988,239.538059 C473.971291,247.793979 481.33795,253.634949 481.33795,253.634949 C481.33795,253.634949 512.56252,268.283356 544.285626,263.128136 C563.621482,260.051825 573.137683,239.843124 573.137683,239.843124 C573.387116,239.35421 573.265731,238.634353 572.894542,238.24307 C572.894542,238.24307 568.767114,234.381718 566.881856,228.284205 C564.996597,222.186692 560.703499,215.271196 560.703499,215.271196 C560.421322,214.80175 560.024517,214.827579 559.796844,215.346129 C559.796844,215.346129 553.587312,231.408149 538.987599,235.596287 C512.624508,239.324355 505.715512,231.042416 491.998324,225.606832 C488.271959,224.13022 485.399936,223.516557 479.692386,224.200243 C473.984836,224.883928 470.461155,227.711003 470.461155,227.711003 Z" id="Path-34" stroke="#000000" stroke-width="4" fill="#7EB1AC"></path>
                        <ellipse id="Oval" stroke="#000000" stroke-width="4" fill="#D8D8D8" cx="483.453521" cy="235.30622" rx="5.65915493" ry="5.66028708"></ellipse>
                        <path d="M477.847957,236.322501 C489.959817,227.650174 477.216321,207.753879 466.484049,203.247323 C458.597738,199.935805 453.269719,202.978202 454.968473,211.9062 C455.875405,216.672687 457.900853,221.209103 460.147673,225.509338 C463.152873,231.261048 464.904633,231.105364 469.479988,233.31178" id="Path-35" stroke="#000000" stroke-width="4"></path>
                    </g>
                    <g id="noun_1021725_cc" transform="translate(221.515493, 0.000000)" fill-rule="nonzero" fill="#000000">
                        <path d="M54.1346676,48.3897943 C54.1241577,48.3412775 54.1063718,48.2968038 54.0926282,48.2499043 C54.0764592,48.1957273 54.0643324,48.1407416 54.0425042,48.0881818 C54.0190592,48.0331962 53.9875296,47.9822536 53.9584254,47.9305024 C53.9365972,47.8900718 53.9188113,47.8480239 53.8937493,47.8108278 C53.8339239,47.7218804 53.7660141,47.6377847 53.6908282,47.5625837 L48.8409324,42.7117177 C48.2095324,42.0801914 47.1860338,42.0801914 46.5546338,42.7117177 C45.9232338,43.343244 45.9232338,44.3669474 46.5546338,44.9984737 L48.6452873,47.0895455 L30.1697634,47.0895455 C29.7469437,45.3057464 28.4154254,43.8712679 26.6893831,43.3068565 L26.6893831,40.6206459 C26.6893831,40.614177 26.6877662,40.6085167 26.6877662,40.6028565 C37.2671521,40.0724067 45.6823155,31.3248373 45.6823155,20.6115311 C45.6823155,15.5302105 43.7881155,10.891201 40.6691127,7.36160766 C39.9309972,15.9895024 32.0817493,22.1673014 23.5598704,20.9729809 C21.139369,20.6333636 19.3680535,18.5867656 19.3817972,16.1407129 C19.3898817,14.4685024 19.3017606,12.6960239 19.3017606,11.5089809 C19.3017606,11.1895789 19.2718479,10.8774545 19.229,10.5693732 L22.3738732,10.5693732 C23.7078169,10.5693732 24.7992254,9.47774641 24.7992254,8.14353589 C24.7992254,6.80932536 23.7078169,5.71769856 22.3738732,5.71769856 L19.2459775,5.71769856 L19.835338,4.69561244 C20.5023099,3.54010526 20.1029352,2.04902392 18.9476592,1.38191866 L18.9476592,1.38191866 C17.7923831,0.714004785 16.3024085,1.11345933 15.6346282,2.26977512 L15.2667831,2.90615311 L15.2667831,2.42583732 C15.2667831,1.09243541 14.1753746,0 12.841431,0 C11.5074873,0 10.4160789,1.09243541 10.4160789,2.42583732 L10.4160789,4.94062201 C8.32542535,5.58670335 6.6535493,7.2087799 5.93726197,9.26831579 L4.16271268,7.97453589 C3.43995775,7.4489378 2.42939437,7.60823445 1.90390141,8.32870813 C1.37840845,9.05079904 1.53686479,10.0623732 2.25800282,10.5879713 L4.66961127,12.3458947 L2.23940845,14.3407416 C1.54899155,14.9067703 1.44793521,15.9264306 2.01546761,16.616177 C2.33561408,17.0059282 2.79885634,17.2072727 3.26614085,17.2072727 C3.62670986,17.2072727 3.99051268,17.0875981 4.29125634,16.8401627 L5.55809859,15.8002871 L5.55809859,17.8808469 C5.55809859,18.7711292 5.65430423,19.6614115 5.65430423,20.6099139 C5.65430423,30.9205311 13.4501944,39.4077273 23.4668986,40.5042057 C23.4636648,40.5430191 23.4547718,40.5802153 23.4547718,40.6198373 L23.4547718,43.2987703 C21.7190282,43.8575215 20.377,45.2976603 19.9525634,47.0895455 L11.0393944,47.0895455 L8.8379831,43.2769378 C8.39010141,42.5030957 7.4013662,42.2378708 6.62929577,42.6850335 C5.85560845,43.1321962 5.59124507,44.1211292 6.03750986,44.8941627 L7.30435211,47.0895455 L5.78446479,47.0895455 L3.58305352,43.2769378 C3.13598028,42.5030957 2.14724507,42.2378708 1.3743662,42.6850335 C0.600678873,43.1321962 0.336315493,44.1211292 0.782580282,44.8941627 L2.04942254,47.0895455 L1.61690141,47.0895455 C0.724371831,47.0895455 0,47.8140622 0,48.7067703 C0,49.5994785 0.724371831,50.3239952 1.61690141,50.3239952 L1.94917465,50.3239952 L0.782580282,52.3455263 C0.336315493,53.1193684 0.600678873,54.1083014 1.3743662,54.5546555 C1.62902817,54.701823 1.90713521,54.7713636 2.1812,54.7713636 C2.73983944,54.7713636 3.28311831,54.4818804 3.58305352,53.9627512 L5.68340845,50.3239952 L7.20410423,50.3239952 L6.03750986,52.3455263 C5.59124507,53.1193684 5.85560845,54.1083014 6.62929577,54.5546555 C6.88395775,54.701823 7.16206479,54.7713636 7.43612958,54.7713636 C7.99476901,54.7713636 8.53804789,54.4818804 8.8379831,53.9627512 L10.938338,50.3239952 L20.2128845,50.3239952 C20.8022451,51.7342153 21.9898592,52.8339282 23.4563887,53.3061579 L23.4563887,72.5616459 C23.4563887,73.4543541 24.1807606,74.1788708 25.0732901,74.1788708 C25.9658197,74.1788708 26.6901915,73.4543541 26.6901915,72.5616459 L26.6901915,53.2964545 C28.1462113,52.8201818 29.3249324,51.7269378 29.9118676,50.3231866 L49.0511296,50.3231866 L46.5562507,52.8185646 C45.9248507,53.4500909 45.9248507,54.4737943 46.5562507,55.1053206 C46.8723549,55.421488 47.2854732,55.5791675 47.6994,55.5791675 C48.1133268,55.5791675 48.5264451,55.421488 48.8425493,55.1053206 L53.6932535,50.2536459 C54.0610986,49.8857273 54.2082366,49.3868134 54.1484113,48.9081148 C54.1686225,48.7350718 54.1686225,48.5612201 54.1346676,48.3897943 Z M12.1647577,13.4965502 C11.2649521,13.4965502 10.5308789,12.7623301 10.5308789,11.8623445 C10.5308789,10.9623589 11.2641437,10.2281388 12.1647577,10.2281388 C13.0637549,10.2281388 13.7978282,10.9623589 13.7978282,11.8623445 C13.7978282,12.7623301 13.0645634,13.4965502 12.1647577,13.4965502 Z M25.0611634,50.3231866 C23.9463099,50.3231866 23.0400366,49.4159234 23.0400366,48.3008469 C23.0400366,47.1857703 23.9463099,46.2793158 25.0611634,46.2793158 C26.1760169,46.2793158 27.0822901,47.1857703 27.0822901,48.3008469 C27.0822901,49.4159234 26.1760169,50.3231866 25.0611634,50.3231866 Z" id="Shape"></path>
                    </g>
                </g>
                <text id="WEATHER-SMART" font-family="AvenirNext-Bold, Avenir Next" font-size="25" font-weight="bold" letter-spacing="4.16666698" fill="#EAEDED">
                    <tspan x="306.504165" y="1518">WEATHER SMART</tspan>
                </text>
                <text id="SET-DAY:" font-family="AvenirNext-DemiBold, Avenir Next" font-size="25" font-weight="500" letter-spacing="4" fill="#2C2D2D">
                    <tspan x="110" y="1022">SET DAY:</tspan>
                </text>
                <text id="WEDNESDAY-7TH-MAY" font-family="AvenirNext-DemiBold, Avenir Next" font-size="32" font-weight="500" letter-spacing="5.33333349" fill="#2C2D2D">
                    <tspan x="188.770665" y="892">WEDNESDAY 7TH MAY</tspan>
                </text>
                <path d="M111.5,934.5 L726.708095,934.5" id="Line" stroke="#979797" opacity="0.430027174" stroke-linecap="square"></path>
                <path d="M212.5,1060.5 L212.5,1317.5" id="Line" stroke="url(#radialGradient-9)" stroke-linecap="square"></path>
                <path d="M465,1060 L465,1317" id="Line" stroke="url(#radialGradient-10)" stroke-linecap="square"></path>
                <rect id="Rectangle-10" fill="#D8D8D8" opacity="0.749094203" x="116" y="1155" width="618" height="59" rx="8"></rect>
                <text id="Monday-Tuesday-Today" font-family="ArialMT, Arial" font-size="30" font-weight="normal" line-spacing="55" letter-spacing="5.00000048">
                    <tspan x="272" y="1072" fill="#000000" fill-opacity="0.414600317">Monday</tspan>
                    <tspan x="408.728518" y="1072" fill="#000000"></tspan>
                    <tspan x="272" y="1127" fill="#000000">Tuesday</tspan>
                    <tspan x="272" y="1182" font-family="Arial-BoldMT, Arial" font-weight="bold" fill="#E34959">Today</tspan>
                    <tspan x="383.118166" y="1182" fill="#000000"></tspan>
                    <tspan x="272" y="1237" fill="#000000">Thursday</tspan>
                    <tspan x="272" y="1292" fill="#000000" fill-opacity="0.410948822">Friday</tspan>
                </text>
            </g>
        </g>
    </g>
</svg>