<?xml version="1.0" encoding="UTF-8"?>
<svg width="867px" height="1787px" viewBox="0 0 867 1787" version="1.1" xmlns="http://www.w3.org/2000/svg" xmlns:xlink="http://www.w3.org/1999/xlink">
    <!-- Generator: Sketch 43.2 (39069) - http://www.bohemiancoding.com/sketch -->
    <title>Group 14</title>
    <desc>Created with Sketch.</desc>
    <defs>
        <path d="M9,99.0672788 C9,43.8333355 53.7680919,-0.518551896 108.993901,0.0045805836 L752.05974,6.09609169 C807.284846,6.61921752 852.240055,51.811256 852.470041,107.043117 L858.999136,1675.02307 C859.229107,1730.25145 814.648783,1775.0229 759.413693,1775.0229 L109.001843,1775.0229 C53.7723503,1775.0229 9,1730.24809 9,1675.01299 L9,99.0672788 Z" id="path-1"></path>
        <filter x="-0.9%" y="-0.5%" width="102.4%" height="101.1%" filterUnits="objectBoundingBox" id="filter-2">
            <feOffset dx="2" dy="2" in="SourceAlpha" result="shadowOffsetOuter1"></feOffset>
            <feGaussianBlur stdDeviation="3" in="shadowOffsetOuter1" result="shadowBlurOuter1"></feGaussianBlur>
            <feComposite in="shadowBlurOuter1" in2="SourceAlpha" operator="out" result="shadowBlurOuter1"></feComposite>
            <feColorMatrix values="0 0 0 0 0   0 0 0 0 0   0 0 0 0 0  0 0 0 0.5 0" type="matrix" in="shadowBlurOuter1"></feColorMatrix>
        </filter>
        <rect id="path-3" x="-48" y="464" width="113" height="17" rx="8"></rect>
        <rect id="path-4" x="-26.5" y="260.5" width="72" height="17" rx="8"></rect>
        <rect id="path-5" x="-47" y="613" width="113" height="17" rx="8"></rect>
        <rect id="path-6" x="51" y="216" width="755" height="1342"></rect>
    </defs>
    <g id="Page-1" stroke="none" stroke-width="1" fill="none" fill-rule="evenodd">
        <g id="A4" transform="translate(-3101.000000, -369.000000)">
            <g id="Group-14" transform="translate(3101.000000, 373.000000)">
                <g id="Rectangle-12">
                    <use fill="black" fill-opacity="1" filter="url(#filter-2)" xlink:href="#path-1"></use>
                    <use fill="#FFFFFF" fill-rule="evenodd" xlink:href="#path-1"></use>
                    <path stroke="#FFFFFF" stroke-width="15" d="M16.5,99.0672788 C16.5,48.0027955 57.8672168,7.02061399 108.922859,7.50424412 L751.988698,13.5957552 C803.112942,14.0800352 844.757206,55.9459072 844.970106,107.074347 L851.499201,1675.0543 C851.711882,1726.13036 810.492467,1767.5229 759.413693,1767.5229 L109.001843,1767.5229 C57.9142098,1767.5229 16.5,1726.10568 16.5,1675.01299 L16.5,99.0672788 Z"></path>
                </g>
                <circle id="Oval-14" stroke="#979797" stroke-width="4" cx="428.5" cy="73.5" r="6.5"></circle>
                <circle id="Oval-14" stroke="#979797" stroke-width="4" cx="319.5" cy="129.5" r="6.5"></circle>
                <rect id="Rectangle-14" stroke="#979797" stroke-width="4" x="364" y="122" width="128" height="13" rx="6.5"></rect>
                <g id="Rectangle-14" transform="translate(8.500000, 472.500000) rotate(90.000000) translate(-8.500000, -472.500000) ">
                    <use fill="#FFFFFF" fill-rule="evenodd" xlink:href="#path-3"></use>
                    <rect stroke="#FFFFFF" stroke-width="4" x="-46" y="466" width="109" height="13" rx="6.5"></rect>
                </g>
                <g id="Rectangle-14" transform="translate(9.500000, 269.000000) rotate(90.000000) translate(-9.500000, -269.000000) ">
                    <use fill="#FFFFFF" fill-rule="evenodd" xlink:href="#path-4"></use>
                    <rect stroke="#FFFFFF" stroke-width="4" x="-24.5" y="262.5" width="68" height="13" rx="6.5"></rect>
                </g>
                <g id="Rectangle-14" transform="translate(9.500000, 621.500000) rotate(90.000000) translate(-9.500000, -621.500000) ">
                    <use fill="#FFFFFF" fill-rule="evenodd" xlink:href="#path-5"></use>
                    <rect stroke="#FFFFFF" stroke-width="4" x="-45" y="615" width="109" height="13" rx="6.5"></rect>
                </g>
                <circle id="Oval-13" stroke="#979797" stroke-width="14" opacity="0.330785779" cx="427" cy="1657" r="72"></circle>
                <g id="Rectangle-13">
                    <use fill="#F2F2F2" fill-rule="evenodd" xlink:href="#path-6"></use>
                    <rect stroke="#979797" stroke-width="5" x="53.5" y="218.5" width="750" height="1337"></rect>
                </g>
                <text id="9-:-41-AM" font-family="AvenirNext-DemiBold, Avenir Next" font-size="25" font-weight="500" fill="#2C2D2D">
                    <tspan x="379.575904" y="255">9 : 41 AM</tspan>
                </text>
                <circle id="Oval-12" stroke="#2C2D2D" stroke-width="2" fill="#2C2D2D" cx="119.5" cy="248.5" r="6.5"></circle>
                <circle id="Oval-12" stroke="#2C2D2D" stroke-width="2" cx="135.5" cy="248.5" r="6.5"></circle>
                <text id="giffgaff" font-family="AvenirNext-DemiBold, Avenir Next" font-size="20" font-weight="500" letter-spacing="-0.74666667" fill="#000000">
                    <tspan x="168.126667" y="254">giffgaff</tspan>
                </text>
                <circle id="Oval-12" stroke="#2C2D2D" stroke-width="2" cx="151.5" cy="248.5" r="6.5"></circle>
                <g id="noun_996939_cc" transform="translate(240.000000, 238.000000)" fill-rule="nonzero" fill="#2C2D2D">
                    <path d="M5.0301,10.7703916 L8.4942,14.1509779 C9.86236127,12.9035828 11.6479274,12.212599 13.5,12.2138183 C15.3850425,12.2199891 17.1992149,12.9324108 18.5841,14.2103337 L21.9672,10.7595996 C17.28,6.03271431 9.2907,6.33488962 5.0301,10.7703916 Z M10.1196,15.9181639 L13.4838,19.1962264 L16.7994,15.845318 C15.1551,14.1779578 11.853,14.1941458 10.1196,15.9181639 Z M0,5.77640489 L3.429,9.17317918 C6.2505,6.52374919 9.6039,5.12618837 13.5,5.12618837 C17.3961,5.12618837 20.763,6.54263515 23.5899,9.18936714 L27,5.73863298 C19.17,-2.03968337 6.6663,-1.16823135 0,5.77640489 Z" id="Shape"></path>
                </g>
                <text id="100%" font-family="AvenirNext-DemiBold, Avenir Next" font-size="25" font-weight="500" letter-spacing="1" fill="#2C2D2D">
                    <tspan x="653.400904" y="257">100%</tspan>
                </text>
                <circle id="Oval-12" stroke="#2C2D2D" stroke-width="2" fill="#2C2D2D" cx="86.5" cy="248.5" r="6.5"></circle>
                <circle id="Oval-12" stroke="#2C2D2D" stroke-width="2" fill="#2C2D2D" cx="103.5" cy="248.5" r="6.5"></circle>
                <g id="noun_1000667_cc" transform="translate(730.000000, 239.000000)" fill-rule="nonzero" fill="#2C2D2D">
                    <path d="M46.0880625,18.4877778 L46.0880625,15.6201111 L47.5335937,15.6201111 C49.2309375,15.6201111 50.611125,14.6093889 50.611125,13.3672778 L50.611125,7.63272222 C50.611125,6.39061111 49.2309375,5.3795 47.5335937,5.3795 L46.0880625,5.3795 L46.0880625,2.51222222 C46.0880625,1.2705 44.7068125,0.259388889 43.0094687,0.259388889 L3.46640625,0.259388889 C1.7690625,0.259388889 0.388875,1.2705 0.388875,2.51222222 L0.388875,18.4877778 C0.388875,19.7295 1.7690625,20.7406111 3.46640625,20.7406111 L43.0094687,20.7406111 C44.7068125,20.7406111 46.0880625,19.7295 46.0880625,18.4877778 Z M3.46640625,18.6923333 C3.31234375,18.6923333 3.1864375,18.6005556 3.1864375,18.4877778 L3.1864375,2.51222222 C3.1864375,2.39983333 3.31234375,2.30766667 3.46640625,2.30766667 L43.0094687,2.30766667 C43.1640625,2.30766667 43.2894375,2.39983333 43.2894375,2.51222222 L43.2894375,18.4877778 C43.2894375,18.6005556 43.1640625,18.6923333 43.0094687,18.6923333 L3.46640625,18.6923333 L3.46640625,18.6923333 Z M4.79559375,3.67305556 L4.79559375,17.3953889 L41.448125,17.3953889 L41.448125,3.67305556 L4.79559375,3.67305556 Z" id="Shape"></path>
                </g>
                <text id="WEATHER-SMART" font-family="AvenirNext-Bold, Avenir Next" font-size="25" font-weight="bold" letter-spacing="4.16666698" fill="#EAEDED">
                    <tspan x="306.504165" y="1518">WEATHER SMART</tspan>
                </text>
                <g id="Group-4" transform="translate(264.000000, 352.000000)">
                    <g id="Group" transform="translate(0.000000, 48.962873)">
                        <path d="M138.184295,14.0389008 C138.184295,14.0389008 140.232515,14.829136 143.713523,12.0479865 C147.194532,9.26683712 153.62946,0.241934183 160.328011,0.241934183 C171.330712,-0.912811683 177.048124,6.39158315 177.048124,6.39158315 C177.048124,6.39158315 181.680922,10.0430644 180.837293,17.4667044 C180.341129,21.8327747 171.921422,30.7605647 169.648468,34.5939669 C167.375514,38.4273691 165.921199,40.7583054 165.921199,44.1601189 C165.921199,47.5619323 167.19779,52.5892485 167.19779,52.5892485 C167.19779,52.5892485 171.676973,69.0670673 163.180264,69.0670673 C154.746934,68.5071471 156.945551,61.6843202 159.276317,58.7431422 C161.607083,55.8019642 163.798283,55.0635429 169.648468,55.0125621 C175.498653,54.9615812 184.307631,55.0756281 192.097985,60.376249 C199.888339,65.6768699 205.283512,77.3667118 210.376048,80.133789 C215.468584,82.9008663 291.38965,95.8833909 316.539817,108.774858 C335.508548,120.002761 331.771,131.661518 331.771,131.661518 C331.563924,133.852278 329.604253,135.706769 327.400002,135.797339 C327.400002,135.797339 316.714049,136.307026 306.915694,136.307026 C297.117339,136.307026 249.756097,136.307026 249.756097,136.307026" id="Path-32" stroke="#000000" stroke-width="4" stroke-linecap="round"></path>
                        <path d="M166.838952,54.4842059 C166.838952,54.4842059 147.501019,52.6987726 137.463511,58.6828547 C127.426002,64.6669368 129.745558,68.5197178 120.535627,78.7499773 C111.325697,88.9802367 20.2211457,102.87933 11.9677261,111.283019 C4.5847585,116.141957 -2.03822926,128.203508 1.46351668,134.786968 C4.34266051,138.932162 15.3450676,138.397353 23.4659549,138.397353 C31.5868423,138.397353 87.1385629,136.144774 87.1385629,136.144774" id="Path-33" stroke="#000000" stroke-width="4" stroke-linecap="round"></path>
                        <text id="ballymena" font-family="SwistblnkMonthoers, Swistblnk Monthoers" font-size="40" font-weight="normal" letter-spacing="1.22285724" fill="#000000">
                            <tspan x="93.9341126" y="136.747421">ballymen</tspan>
                            <tspan x="228.236971" y="136.747421" letter-spacing="1.39755118">a</tspan>
                        </text>
                        <path d="M313.376218,151.338456 C312.921329,151.649201 312.486482,152.35154 312.464015,152.903908 C312.464015,152.903908 311.987975,153.895944 313.709173,159.389462 C315.430371,164.88298 320.332922,168.769583 320.332922,168.769583 C320.332922,168.769583 341.113036,178.516684 362.224929,175.086382 C375.093042,173.039394 381.277942,159.867249 381.277942,159.867249 C381.525779,159.390159 381.410181,158.682983 381.038594,158.279858 C381.038594,158.279858 378.517487,155.958415 377.262838,151.901109 C376.008188,147.843802 373.315355,143.521865 373.315355,143.521865 C373.036854,143.055043 372.64051,143.082947 372.407752,143.597127 C372.407752,143.597127 368.415249,153.979792 358.699064,156.766594 C341.154289,159.247263 336.556316,153.736432 327.427456,150.119575 C324.947541,149.137032 323.036194,148.728699 319.23779,149.183626 C315.439386,149.638553 313.376218,151.338456 313.376218,151.338456 Z" id="Path-34" stroke="#000000" stroke-width="2" fill="#7EB1AC"></path>
                        <ellipse id="Oval" stroke="#000000" stroke-width="2" fill="#D8D8D8" cx="321.740845" cy="156.573582" rx="3.76619718" ry="3.76637483"></ellipse>
                        <path d="M318.010313,157.249819 C326.070819,151.479222 317.589956,138.240158 310.447573,135.24148 C305.199191,133.037984 301.653367,135.062406 302.783897,141.003127 C303.387464,144.174764 304.735411,147.193311 306.230682,150.054703 C308.230657,153.881911 309.396463,153.778318 312.441386,155.246475" id="Path-35" stroke="#000000" stroke-width="2"></path>
                    </g>
                    <g id="noun_1021725_cc" transform="translate(147.419718, 0.000000)" fill-rule="nonzero" fill="#000000">
                        <path d="M36.0269042,32.1987384 C36.0199099,32.1664552 36.0080732,32.1368623 35.9989268,32.1056551 C35.9881662,32.0696056 35.9800958,32.0330179 35.965569,31.9980444 C35.9499662,31.9614568 35.9289831,31.9275594 35.9096141,31.893124 C35.8950873,31.8662213 35.8832507,31.8382425 35.8665718,31.8134921 C35.8267577,31.7543062 35.7815634,31.6983486 35.7315268,31.6483096 L32.5038958,28.4205264 C32.0836958,28.0003066 31.4025521,28.0003066 30.9823521,28.4205264 C30.5621521,28.8407462 30.5621521,29.521922 30.9823521,29.9421418 L32.373693,31.3335483 L20.0781352,31.3335483 C19.7967465,30.1466022 18.9106141,29.1920952 17.7619239,28.8165338 L17.7619239,27.0291199 C17.7619239,27.0248155 17.7608479,27.0210491 17.7608479,27.0172828 C24.8014845,26.6643196 30.4018197,20.8436564 30.4018197,13.7149849 C30.4018197,10.3338564 29.1412197,7.24704322 27.065507,4.89843949 C26.5742873,10.6394708 21.3505718,14.7501999 15.6792169,13.9554948 C14.0683606,13.7295124 12.8895408,12.3676988 12.8986873,10.7400869 C12.9040676,9.62739212 12.8454225,8.44797874 12.8454225,7.65811613 C12.8454225,7.44558498 12.8255155,7.23789631 12.797,7.03289791 L14.8899296,7.03289791 C15.7776761,7.03289791 16.5040141,6.30652562 16.5040141,5.41873727 C16.5040141,4.53094892 15.7776761,3.80457663 14.8899296,3.80457663 L12.8082986,3.80457663 L13.2005211,3.12447695 C13.6443944,2.35559843 13.3786085,1.36342769 12.6097662,0.919533512 L12.6097662,0.919533512 C11.8409239,0.475101282 10.849338,0.740899734 10.4049268,1.51031631 L10.1601239,1.93376445 L10.1601239,1.61416064 C10.1601239,0.726910342 9.43378592,0 8.54603944,0 C7.65829296,0 6.93195493,0.726910342 6.93195493,1.61416064 L6.93195493,3.28750717 C5.54061408,3.71741196 4.42797183,4.79674737 3.95127887,6.16716976 L2.77030704,5.30628408 C2.28930986,4.95654927 1.61677465,5.06254582 1.26705634,5.54195153 C0.917338028,6.02243335 1.02279155,6.69553834 1.50271268,7.04527314 L3.1076507,8.21500155 L1.49033803,9.54237966 C1.03086197,9.91901714 0.963608451,10.5975027 1.34130423,11.0564623 C1.55436338,11.3158041 1.86265352,11.4497795 2.1736338,11.4497795 C2.41359437,11.4497795 2.65570704,11.3701476 2.85585352,11.2055032 L3.69894366,10.5135663 L3.69894366,11.8979781 C3.69894366,12.490375 3.76296901,13.082772 3.76296901,13.7139088 C3.76296901,20.5746296 8.95117465,26.2220396 15.6173437,26.9516402 C15.6151915,26.9774668 15.6092732,27.0022173 15.6092732,27.0285819 L15.6092732,28.8111533 C14.4541268,29.1829483 13.561,30.1412216 13.2785352,31.3335483 L7.34677465,31.3335483 L5.88172394,28.7966258 C5.58365634,28.2817086 4.92564789,28.105227 4.41183099,28.4027706 C3.89693803,28.7003142 3.72100282,29.3583537 4.01799437,29.8727329 L4.86108451,31.3335483 L3.84959155,31.3335483 L2.38454085,28.7966258 C2.08701127,28.2817086 1.42900282,28.105227 0.914647887,28.4027706 C0.39975493,28.7003142 0.223819718,29.3583537 0.520811268,29.8727329 L1.36390141,31.3335483 L1.07605634,31.3335483 C0.482073239,31.3335483 0,31.8156443 0,32.4096554 C0,33.0036665 0.482073239,33.4857625 1.07605634,33.4857625 L1.29718592,33.4857625 L0.520811268,34.8308964 C0.223819718,35.3458136 0.39975493,36.0038531 0.914647887,36.3008587 C1.08412676,36.3987844 1.26920845,36.445057 1.4516,36.445057 C1.82337746,36.445057 2.18493239,36.2524338 2.38454085,35.9070035 L3.78233803,33.4857625 L4.79436901,33.4857625 L4.01799437,34.8308964 C3.72100282,35.3458136 3.89693803,36.0038531 4.41183099,36.3008587 C4.58130986,36.3987844 4.76639155,36.445057 4.9487831,36.445057 C5.32056056,36.445057 5.68211549,36.2524338 5.88172394,35.9070035 L7.27952113,33.4857625 L13.4517803,33.4857625 C13.8440028,34.4241279 14.6343662,35.1558807 15.6103493,35.470104 L15.6103493,48.2827731 C15.6103493,48.8767842 16.0924225,49.3588802 16.6864056,49.3588802 C17.2803887,49.3588802 17.762462,48.8767842 17.762462,48.2827731 L17.762462,35.4636473 C18.7314507,35.1467338 19.5158958,34.4192854 19.9065042,33.4852244 L32.6437831,33.4852244 L30.9834282,35.1456577 C30.5632282,35.5658775 30.5632282,36.2470533 30.9834282,36.6672731 C31.1937972,36.8776521 31.4687296,36.9825725 31.7442,36.9825725 C32.0196704,36.9825725 32.2946028,36.8776521 32.5049718,36.6672731 L35.7331408,33.4389518 C35.9779437,33.1941375 36.0758648,32.8621584 36.0360507,32.5436307 C36.0495014,32.4284873 36.0495014,32.3128058 36.0269042,32.1987384 Z M8.09570986,8.98065175 C7.49688451,8.98065175 7.00835493,8.49209913 7.00835493,7.89324553 C7.00835493,7.29439194 7.49634648,6.80583932 8.09570986,6.80583932 C8.69399718,6.80583932 9.18252676,7.29439194 9.18252676,7.89324553 C9.18252676,8.49209913 8.69453521,8.98065175 8.09570986,8.98065175 Z M16.6783352,33.4852244 C15.9363944,33.4852244 15.3332648,32.8815284 15.3332648,32.1395525 C15.3332648,31.3975767 15.9363944,30.7944187 16.6783352,30.7944187 C17.4202761,30.7944187 18.0234056,31.3975767 18.0234056,32.1395525 C18.0234056,32.8815284 17.4202761,33.4852244 16.6783352,33.4852244 Z" id="Shape"></path>
                    </g>
                </g>
                <text id="MONDAY-Today" font-family="AvenirNext-Bold, Avenir Next" font-size="32" font-weight="bold" letter-spacing="5.33333349" fill="#2C2D2D">
                    <tspan x="133" y="700">MONDAY </tspan>
                    <tspan x="327.453334" y="700" font-family="AvenirNext-Medium, Avenir Next" font-weight="400">Today</tspan>
                </text>
                <rect id="Rectangle-10" fill="#D8D8D8" opacity="0.749094203" x="116" y="824" width="651" height="78" rx="8"></rect>
                <path d="M121.5,717.5 L762.5,717.5" id="Line" stroke="#979797" opacity="0.430027174" stroke-linecap="square"></path>
                <path d="M133.5,925.5 L748.708095,925.5" id="Line" stroke="#979797" opacity="0.430027174" stroke-linecap="square"></path>
                <path d="M133.5,1020.5 L748.708095,1020.5" id="Line" stroke="#979797" opacity="0.430027174" stroke-linecap="square"></path>
                <path d="M133.5,1115.5 L748.708095,1115.5" id="Line" stroke="#979797" opacity="0.430027174" stroke-linecap="square"></path>
                <path d="M133.5,1210.5 L748.708095,1210.5" id="Line" stroke="#979797" opacity="0.430027174" stroke-linecap="square"></path>
                <path d="M133.5,1306.5 L748.708095,1306.5" id="Line" stroke="#979797" opacity="0.430027174" stroke-linecap="square"></path>
                <text id="Monday-Tuesday-Wedne" font-family="AvenirNext-DemiBold, Avenir Next" font-size="25" font-weight="500" line-spacing="32" letter-spacing="4" fill="#2C2D2D">
                    <tspan x="133" y="775">Monday</tspan>
                    <tspan x="144.575" y="813.149841"></tspan>
                    <tspan x="144.575" y="845.149841"></tspan>
                    <tspan x="144.575" y="877.149841"></tspan>
                    <tspan x="144.575" y="909.149841"></tspan>
                    <tspan x="144.575" y="941.149841"></tspan>
                    <tspan x="133" y="967">Tuesday</tspan>
                    <tspan x="144.575" y="1005.14984"></tspan>
                    <tspan x="144.575" y="1037.14984"></tspan>
                    <tspan x="133" y="1063">Wednesday</tspan>
                    <tspan x="144.575" y="1101.14984"></tspan>
                    <tspan x="144.575" y="1133.14984"></tspan>
                    <tspan x="133" y="1159">Thursday</tspan>
                    <tspan x="144.575" y="1197.14984"></tspan>
                    <tspan x="144.575" y="1229.14984"></tspan>
                    <tspan x="133" y="1255">Friday</tspan>
                    <tspan x="144.575" y="1293.14984"></tspan>
                    <tspan x="144.575" y="1325.14984"></tspan>
                    <tspan x="133" y="1351">Saturday</tspan>
                    <tspan x="144.575" y="1389.14984"></tspan>
                    <tspan x="144.575" y="1421.14984"></tspan>
                </text>
                <text id="Cloudy-Cloudy-Sunny" font-family="AvenirNext-DemiBold, Avenir Next" font-size="20" font-weight="500" line-spacing="31" letter-spacing="3.20000005" fill-opacity="0.705700861" fill="#2C2D2D">
                    <tspan x="663.74" y="797">Cloudy</tspan>
                    <tspan x="749" y="828"></tspan>
                    <tspan x="749" y="859"></tspan>
                    <tspan x="749" y="890"></tspan>
                    <tspan x="749" y="921" line-spacing="34"></tspan>
                    <tspan x="749" y="955" line-spacing="34"></tspan>
                    <tspan x="663.74" y="989" line-spacing="34">Cloudy</tspan>
                    <tspan x="749" y="1023"></tspan>
                    <tspan x="749" y="1054"></tspan>
                    <tspan x="539.579999" y="1085">Sunny with cloud</tspan>
                    <tspan x="749" y="1116"></tspan>
                    <tspan x="749" y="1147"></tspan>
                    <tspan x="676.34" y="1178">Sunny</tspan>
                    <tspan x="749" y="1209"></tspan>
                    <tspan x="749" y="1240"></tspan>
                    <tspan x="676.34" y="1271">Sunny</tspan>
                    <tspan x="749" y="1302"></tspan>
                    <tspan x="749" y="1333" line-spacing="33"></tspan>
                    <tspan x="676.34" y="1366" line-spacing="33">Sunny</tspan>
                    <tspan x="749" y="1399" line-spacing="33"></tspan>
                    <tspan x="749" y="1432"></tspan>
                </text>
                <g id="Group-2" transform="translate(399.000000, 1482.000000)" stroke="#E34959" stroke-width="6" fill="#E34959">
                    <ellipse id="Oval-2" cx="8.28767123" cy="8.5" rx="8.28767123" ry="8.5"></ellipse>
                    <ellipse id="Oval-2" opacity="0.601245435" cx="55" cy="8.5" rx="8.28767123" ry="8.5"></ellipse>
                </g>
                <text id="12°-12°-13°-15°-16°" font-family="Arial-BoldMT, Arial" font-size="30" font-weight="bold" line-spacing="47" letter-spacing="5" fill="#81B3AD">
                    <tspan x="688.470738" y="753">12°</tspan>
                    <tspan x="467" y="753">    </tspan>
                    <tspan x="748.836949" y="847" line-spacing="52"></tspan>
                    <tspan x="748.836949" y="899" line-spacing="52"></tspan>
                    <tspan x="688.470738" y="951" line-spacing="52">12°</tspan>
                    <tspan x="748.836949" y="1003"></tspan>
                    <tspan x="688.470738" y="1050">13°</tspan>
                    <tspan x="748.836949" y="1097"></tspan>
                    <tspan x="688.470738" y="1144">15°</tspan>
                    <tspan x="748.836949" y="1191"></tspan>
                    <tspan x="688.470738" y="1238">16°</tspan>
                    <tspan x="748.836949" y="1285"></tspan>
                    <tspan x="688.470738" y="1332">16°</tspan>
                    <tspan x="748.836949" y="1379"></tspan>
                </text>
                <text id="12°-6°" font-family="Arial-BoldMT, Arial" font-size="30" font-weight="bold" line-spacing="47" letter-spacing="5">
                    <tspan x="642.454137" y="695" fill="#E34959">12° </tspan>
                    <tspan x="716.155308" y="695" fill="#81B3AD" fill-opacity="0.852836277">6°</tspan>
                    <tspan x="754.836949" y="742" fill="#E34959"></tspan>
                </text>
                <text id="Now-22-23-00-01-02-0" font-family="AvenirNext-Medium, Avenir Next" font-size="18" font-weight="400" fill="#2C2D2D">
                    <tspan x="158" y="851">Now         22          23          00          01         02          03          04          05</tspan>
                </text>
                <text id="8°-8°-8°-7°-7°-7°-6°" font-family="AvenirNext-DemiBold, Avenir Next" font-size="18" font-weight="500" fill="#2C2D2D">
                    <tspan x="156" y="882">   8°           8°           8°           7°          7°          7°           6°           6°           7°</tspan>
                </text>
                <path d="M134.5,1395.5 L749.708095,1395.5" id="Line" stroke="#979797" opacity="0.430027174" stroke-linecap="square"></path>
            </g>
        </g>
    </g>
</svg>