<?xml version="1.0" encoding="UTF-8"?>
<svg width="867px" height="1787px" viewBox="0 0 867 1787" version="1.1" xmlns="http://www.w3.org/2000/svg" xmlns:xlink="http://www.w3.org/1999/xlink">
    <!-- Generator: Sketch 43.2 (39069) - http://www.bohemiancoding.com/sketch -->
    <title>Group 13</title>
    <desc>Created with Sketch.</desc>
    <defs>
        <path d="M9,99.0672788 C9,43.8333355 53.7680919,-0.518551896 108.993901,0.0045805836 L752.05974,6.09609169 C807.284846,6.61921752 852.240055,51.811256 852.470041,107.043117 L858.999136,1675.02307 C859.229107,1730.25145 814.648783,1775.0229 759.413693,1775.0229 L109.001843,1775.0229 C53.7723503,1775.0229 9,1730.24809 9,1675.01299 L9,99.0672788 Z" id="path-1"></path>
        <filter x="-0.9%" y="-0.5%" width="102.4%" height="101.1%" filterUnits="objectBoundingBox" id="filter-2">
            <feOffset dx="2" dy="2" in="SourceAlpha" result="shadowOffsetOuter1"></feOffset>
            <feGaussianBlur stdDeviation="3" in="shadowOffsetOuter1" result="shadowBlurOuter1"></feGaussianBlur>
            <feComposite in="shadowBlurOuter1" in2="SourceAlpha" operator="out" result="shadowBlurOuter1"></feComposite>
            <feColorMatrix values="0 0 0 0 0   0 0 0 0 0   0 0 0 0 0  0 0 0 0.5 0" type="matrix" in="shadowBlurOuter1"></feColorMatrix>
        </filter>
        <rect id="path-3" x="-48" y="464" width="113" height="17" rx="8"></rect>
        <rect id="path-4" x="-26.5" y="260.5" width="72" height="17" rx="8"></rect>
        <rect id="path-5" x="-47" y="613" width="113" height="17" rx="8"></rect>
        <rect id="path-6" x="51" y="216" width="755" height="1342"></rect>
        <rect id="path-7" x="781.5" y="456.5" width="152" height="17" rx="8"></rect>
    </defs>
    <g id="Page-1" stroke="none" stroke-width="1" fill="none" fill-rule="evenodd">
        <g id="A4" transform="translate(-2180.000000, -369.000000)">
            <g id="Group-13" transform="translate(2180.000000, 373.000000)">
                <g id="Rectangle-12">
                    <use fill="black" fill-opacity="1" filter="url(#filter-2)" xlink:href="#path-1"></use>
                    <use fill="#FFFFFF" fill-rule="evenodd" xlink:href="#path-1"></use>
                    <path stroke="#FFFFFF" stroke-width="15" d="M16.5,99.0672788 C16.5,48.0027955 57.8672168,7.02061399 108.922859,7.50424412 L751.988698,13.5957552 C803.112942,14.0800352 844.757206,55.9459072 844.970106,107.074347 L851.499201,1675.0543 C851.711882,1726.13036 810.492467,1767.5229 759.413693,1767.5229 L109.001843,1767.5229 C57.9142098,1767.5229 16.5,1726.10568 16.5,1675.01299 L16.5,99.0672788 Z"></path>
                </g>
                <circle id="Oval-14" stroke="#979797" stroke-width="4" cx="428.5" cy="73.5" r="6.5"></circle>
                <circle id="Oval-14" stroke="#979797" stroke-width="4" cx="319.5" cy="129.5" r="6.5"></circle>
                <rect id="Rectangle-14" stroke="#979797" stroke-width="4" x="364" y="122" width="128" height="13" rx="6.5"></rect>
                <g id="Rectangle-14" transform="translate(8.500000, 472.500000) rotate(90.000000) translate(-8.500000, -472.500000) ">
                    <use fill="#FFFFFF" fill-rule="evenodd" xlink:href="#path-3"></use>
                    <rect stroke="#FFFFFF" stroke-width="4" x="-46" y="466" width="109" height="13" rx="6.5"></rect>
                </g>
                <g id="Rectangle-14" transform="translate(9.500000, 269.000000) rotate(90.000000) translate(-9.500000, -269.000000) ">
                    <use fill="#FFFFFF" fill-rule="evenodd" xlink:href="#path-4"></use>
                    <rect stroke="#FFFFFF" stroke-width="4" x="-24.5" y="262.5" width="68" height="13" rx="6.5"></rect>
                </g>
                <g id="Rectangle-14" transform="translate(9.500000, 621.500000) rotate(90.000000) translate(-9.500000, -621.500000) ">
                    <use fill="#FFFFFF" fill-rule="evenodd" xlink:href="#path-5"></use>
                    <rect stroke="#FFFFFF" stroke-width="4" x="-45" y="615" width="109" height="13" rx="6.5"></rect>
                </g>
                <circle id="Oval-13" stroke="#979797" stroke-width="14" opacity="0.330785779" cx="427" cy="1657" r="72"></circle>
                <g id="Rectangle-13">
                    <use fill="#F2F2F2" fill-rule="evenodd" xlink:href="#path-6"></use>
                    <rect stroke="#979797" stroke-width="5" x="53.5" y="218.5" width="750" height="1337"></rect>
                </g>
                <text id="9-:-41-AM" font-family="AvenirNext-DemiBold, Avenir Next" font-size="25" font-weight="500" fill="#2C2D2D">
                    <tspan x="379.575904" y="255">9 : 41 AM</tspan>
                </text>
                <circle id="Oval-12" stroke="#2C2D2D" stroke-width="2" fill="#2C2D2D" cx="119.5" cy="248.5" r="6.5"></circle>
                <circle id="Oval-12" stroke="#2C2D2D" stroke-width="2" cx="135.5" cy="248.5" r="6.5"></circle>
                <text id="giffgaff" font-family="AvenirNext-DemiBold, Avenir Next" font-size="20" font-weight="500" letter-spacing="-0.74666667" fill="#000000">
                    <tspan x="168.126667" y="254">giffgaff</tspan>
                </text>
                <circle id="Oval-12" stroke="#2C2D2D" stroke-width="2" cx="151.5" cy="248.5" r="6.5"></circle>
                <g id="noun_996939_cc" transform="translate(240.000000, 238.000000)" fill-rule="nonzero" fill="#2C2D2D">
                    <path d="M5.0301,10.7703916 L8.4942,14.1509779 C9.86236127,12.9035828 11.6479274,12.212599 13.5,12.2138183 C15.3850425,12.2199891 17.1992149,12.9324108 18.5841,14.2103337 L21.9672,10.7595996 C17.28,6.03271431 9.2907,6.33488962 5.0301,10.7703916 Z M10.1196,15.9181639 L13.4838,19.1962264 L16.7994,15.845318 C15.1551,14.1779578 11.853,14.1941458 10.1196,15.9181639 Z M0,5.77640489 L3.429,9.17317918 C6.2505,6.52374919 9.6039,5.12618837 13.5,5.12618837 C17.3961,5.12618837 20.763,6.54263515 23.5899,9.18936714 L27,5.73863298 C19.17,-2.03968337 6.6663,-1.16823135 0,5.77640489 Z" id="Shape"></path>
                </g>
                <text id="100%" font-family="AvenirNext-DemiBold, Avenir Next" font-size="25" font-weight="500" letter-spacing="1" fill="#2C2D2D">
                    <tspan x="653.400904" y="257">100%</tspan>
                </text>
                <circle id="Oval-12" stroke="#2C2D2D" stroke-width="2" fill="#2C2D2D" cx="86.5" cy="248.5" r="6.5"></circle>
                <circle id="Oval-12" stroke="#2C2D2D" stroke-width="2" fill="#2C2D2D" cx="103.5" cy="248.5" r="6.5"></circle>
                <g id="noun_1000667_cc" transform="translate(730.000000, 239.000000)" fill-rule="nonzero" fill="#2C2D2D">
                    <path d="M46.0880625,18.4877778 L46.0880625,15.6201111 L47.5335937,15.6201111 C49.2309375,15.6201111 50.611125,14.6093889 50.611125,13.3672778 L50.611125,7.63272222 C50.611125,6.39061111 49.2309375,5.3795 47.5335937,5.3795 L46.0880625,5.3795 L46.0880625,2.51222222 C46.0880625,1.2705 44.7068125,0.259388889 43.0094687,0.259388889 L3.46640625,0.259388889 C1.7690625,0.259388889 0.388875,1.2705 0.388875,2.51222222 L0.388875,18.4877778 C0.388875,19.7295 1.7690625,20.7406111 3.46640625,20.7406111 L43.0094687,20.7406111 C44.7068125,20.7406111 46.0880625,19.7295 46.0880625,18.4877778 Z M3.46640625,18.6923333 C3.31234375,18.6923333 3.1864375,18.6005556 3.1864375,18.4877778 L3.1864375,2.51222222 C3.1864375,2.39983333 3.31234375,2.30766667 3.46640625,2.30766667 L43.0094687,2.30766667 C43.1640625,2.30766667 43.2894375,2.39983333 43.2894375,2.51222222 L43.2894375,18.4877778 C43.2894375,18.6005556 43.1640625,18.6923333 43.0094687,18.6923333 L3.46640625,18.6923333 L3.46640625,18.6923333 Z M4.79559375,3.67305556 L4.79559375,17.3953889 L41.448125,17.3953889 L41.448125,3.67305556 L4.79559375,3.67305556 Z" id="Shape"></path>
                </g>
                <text id="WEATHER-SMART" font-family="AvenirNext-Bold, Avenir Next" font-size="25" font-weight="bold" letter-spacing="4.16666698" fill="#EAEDED">
                    <tspan x="306.504165" y="1518">WEATHER SMART</tspan>
                </text>
                <g id="Group-4" transform="translate(264.000000, 352.000000)">
                    <g id="Group" transform="translate(0.000000, 48.962873)">
                        <path d="M138.184295,14.0389008 C138.184295,14.0389008 140.232515,14.829136 143.713523,12.0479865 C147.194532,9.26683712 153.62946,0.241934183 160.328011,0.241934183 C171.330712,-0.912811683 177.048124,6.39158315 177.048124,6.39158315 C177.048124,6.39158315 181.680922,10.0430644 180.837293,17.4667044 C180.341129,21.8327747 171.921422,30.7605647 169.648468,34.5939669 C167.375514,38.4273691 165.921199,40.7583054 165.921199,44.1601189 C165.921199,47.5619323 167.19779,52.5892485 167.19779,52.5892485 C167.19779,52.5892485 171.676973,69.0670673 163.180264,69.0670673 C154.746934,68.5071471 156.945551,61.6843202 159.276317,58.7431422 C161.607083,55.8019642 163.798283,55.0635429 169.648468,55.0125621 C175.498653,54.9615812 184.307631,55.0756281 192.097985,60.376249 C199.888339,65.6768699 205.283512,77.3667118 210.376048,80.133789 C215.468584,82.9008663 291.38965,95.8833909 316.539817,108.774858 C335.508548,120.002761 331.771,131.661518 331.771,131.661518 C331.563924,133.852278 329.604253,135.706769 327.400002,135.797339 C327.400002,135.797339 316.714049,136.307026 306.915694,136.307026 C297.117339,136.307026 249.756097,136.307026 249.756097,136.307026" id="Path-32" stroke="#000000" stroke-width="4" stroke-linecap="round"></path>
                        <path d="M166.838952,54.4842059 C166.838952,54.4842059 147.501019,52.6987726 137.463511,58.6828547 C127.426002,64.6669368 129.745558,68.5197178 120.535627,78.7499773 C111.325697,88.9802367 20.2211457,102.87933 11.9677261,111.283019 C4.5847585,116.141957 -2.03822926,128.203508 1.46351668,134.786968 C4.34266051,138.932162 15.3450676,138.397353 23.4659549,138.397353 C31.5868423,138.397353 87.1385629,136.144774 87.1385629,136.144774" id="Path-33" stroke="#000000" stroke-width="4" stroke-linecap="round"></path>
                        <text id="ballymena" font-family="SwistblnkMonthoers, Swistblnk Monthoers" font-size="40" font-weight="normal" letter-spacing="1.22285724" fill="#000000">
                            <tspan x="93.9341126" y="136.747421">ballymen</tspan>
                            <tspan x="228.236971" y="136.747421" letter-spacing="1.39755118">a</tspan>
                        </text>
                        <path d="M313.376218,151.338456 C312.921329,151.649201 312.486482,152.35154 312.464015,152.903908 C312.464015,152.903908 311.987975,153.895944 313.709173,159.389462 C315.430371,164.88298 320.332922,168.769583 320.332922,168.769583 C320.332922,168.769583 341.113036,178.516684 362.224929,175.086382 C375.093042,173.039394 381.277942,159.867249 381.277942,159.867249 C381.525779,159.390159 381.410181,158.682983 381.038594,158.279858 C381.038594,158.279858 378.517487,155.958415 377.262838,151.901109 C376.008188,147.843802 373.315355,143.521865 373.315355,143.521865 C373.036854,143.055043 372.64051,143.082947 372.407752,143.597127 C372.407752,143.597127 368.415249,153.979792 358.699064,156.766594 C341.154289,159.247263 336.556316,153.736432 327.427456,150.119575 C324.947541,149.137032 323.036194,148.728699 319.23779,149.183626 C315.439386,149.638553 313.376218,151.338456 313.376218,151.338456 Z" id="Path-34" stroke="#000000" stroke-width="2" fill="#7EB1AC"></path>
                        <ellipse id="Oval" stroke="#000000" stroke-width="2" fill="#D8D8D8" cx="321.740845" cy="156.573582" rx="3.76619718" ry="3.76637483"></ellipse>
                        <path d="M318.010313,157.249819 C326.070819,151.479222 317.589956,138.240158 310.447573,135.24148 C305.199191,133.037984 301.653367,135.062406 302.783897,141.003127 C303.387464,144.174764 304.735411,147.193311 306.230682,150.054703 C308.230657,153.881911 309.396463,153.778318 312.441386,155.246475" id="Path-35" stroke="#000000" stroke-width="2"></path>
                    </g>
                    <g id="noun_1021725_cc" transform="translate(147.419718, 0.000000)" fill-rule="nonzero" fill="#000000">
                        <path d="M36.0269042,32.1987384 C36.0199099,32.1664552 36.0080732,32.1368623 35.9989268,32.1056551 C35.9881662,32.0696056 35.9800958,32.0330179 35.965569,31.9980444 C35.9499662,31.9614568 35.9289831,31.9275594 35.9096141,31.893124 C35.8950873,31.8662213 35.8832507,31.8382425 35.8665718,31.8134921 C35.8267577,31.7543062 35.7815634,31.6983486 35.7315268,31.6483096 L32.5038958,28.4205264 C32.0836958,28.0003066 31.4025521,28.0003066 30.9823521,28.4205264 C30.5621521,28.8407462 30.5621521,29.521922 30.9823521,29.9421418 L32.373693,31.3335483 L20.0781352,31.3335483 C19.7967465,30.1466022 18.9106141,29.1920952 17.7619239,28.8165338 L17.7619239,27.0291199 C17.7619239,27.0248155 17.7608479,27.0210491 17.7608479,27.0172828 C24.8014845,26.6643196 30.4018197,20.8436564 30.4018197,13.7149849 C30.4018197,10.3338564 29.1412197,7.24704322 27.065507,4.89843949 C26.5742873,10.6394708 21.3505718,14.7501999 15.6792169,13.9554948 C14.0683606,13.7295124 12.8895408,12.3676988 12.8986873,10.7400869 C12.9040676,9.62739212 12.8454225,8.44797874 12.8454225,7.65811613 C12.8454225,7.44558498 12.8255155,7.23789631 12.797,7.03289791 L14.8899296,7.03289791 C15.7776761,7.03289791 16.5040141,6.30652562 16.5040141,5.41873727 C16.5040141,4.53094892 15.7776761,3.80457663 14.8899296,3.80457663 L12.8082986,3.80457663 L13.2005211,3.12447695 C13.6443944,2.35559843 13.3786085,1.36342769 12.6097662,0.919533512 L12.6097662,0.919533512 C11.8409239,0.475101282 10.849338,0.740899734 10.4049268,1.51031631 L10.1601239,1.93376445 L10.1601239,1.61416064 C10.1601239,0.726910342 9.43378592,0 8.54603944,0 C7.65829296,0 6.93195493,0.726910342 6.93195493,1.61416064 L6.93195493,3.28750717 C5.54061408,3.71741196 4.42797183,4.79674737 3.95127887,6.16716976 L2.77030704,5.30628408 C2.28930986,4.95654927 1.61677465,5.06254582 1.26705634,5.54195153 C0.917338028,6.02243335 1.02279155,6.69553834 1.50271268,7.04527314 L3.1076507,8.21500155 L1.49033803,9.54237966 C1.03086197,9.91901714 0.963608451,10.5975027 1.34130423,11.0564623 C1.55436338,11.3158041 1.86265352,11.4497795 2.1736338,11.4497795 C2.41359437,11.4497795 2.65570704,11.3701476 2.85585352,11.2055032 L3.69894366,10.5135663 L3.69894366,11.8979781 C3.69894366,12.490375 3.76296901,13.082772 3.76296901,13.7139088 C3.76296901,20.5746296 8.95117465,26.2220396 15.6173437,26.9516402 C15.6151915,26.9774668 15.6092732,27.0022173 15.6092732,27.0285819 L15.6092732,28.8111533 C14.4541268,29.1829483 13.561,30.1412216 13.2785352,31.3335483 L7.34677465,31.3335483 L5.88172394,28.7966258 C5.58365634,28.2817086 4.92564789,28.105227 4.41183099,28.4027706 C3.89693803,28.7003142 3.72100282,29.3583537 4.01799437,29.8727329 L4.86108451,31.3335483 L3.84959155,31.3335483 L2.38454085,28.7966258 C2.08701127,28.2817086 1.42900282,28.105227 0.914647887,28.4027706 C0.39975493,28.7003142 0.223819718,29.3583537 0.520811268,29.8727329 L1.36390141,31.3335483 L1.07605634,31.3335483 C0.482073239,31.3335483 0,31.8156443 0,32.4096554 C0,33.0036665 0.482073239,33.4857625 1.07605634,33.4857625 L1.29718592,33.4857625 L0.520811268,34.8308964 C0.223819718,35.3458136 0.39975493,36.0038531 0.914647887,36.3008587 C1.08412676,36.3987844 1.26920845,36.445057 1.4516,36.445057 C1.82337746,36.445057 2.18493239,36.2524338 2.38454085,35.9070035 L3.78233803,33.4857625 L4.79436901,33.4857625 L4.01799437,34.8308964 C3.72100282,35.3458136 3.89693803,36.0038531 4.41183099,36.3008587 C4.58130986,36.3987844 4.76639155,36.445057 4.9487831,36.445057 C5.32056056,36.445057 5.68211549,36.2524338 5.88172394,35.9070035 L7.27952113,33.4857625 L13.4517803,33.4857625 C13.8440028,34.4241279 14.6343662,35.1558807 15.6103493,35.470104 L15.6103493,48.2827731 C15.6103493,48.8767842 16.0924225,49.3588802 16.6864056,49.3588802 C17.2803887,49.3588802 17.762462,48.8767842 17.762462,48.2827731 L17.762462,35.4636473 C18.7314507,35.1467338 19.5158958,34.4192854 19.9065042,33.4852244 L32.6437831,33.4852244 L30.9834282,35.1456577 C30.5632282,35.5658775 30.5632282,36.2470533 30.9834282,36.6672731 C31.1937972,36.8776521 31.4687296,36.9825725 31.7442,36.9825725 C32.0196704,36.9825725 32.2946028,36.8776521 32.5049718,36.6672731 L35.7331408,33.4389518 C35.9779437,33.1941375 36.0758648,32.8621584 36.0360507,32.5436307 C36.0495014,32.4284873 36.0495014,32.3128058 36.0269042,32.1987384 Z M8.09570986,8.98065175 C7.49688451,8.98065175 7.00835493,8.49209913 7.00835493,7.89324553 C7.00835493,7.29439194 7.49634648,6.80583932 8.09570986,6.80583932 C8.69399718,6.80583932 9.18252676,7.29439194 9.18252676,7.89324553 C9.18252676,8.49209913 8.69453521,8.98065175 8.09570986,8.98065175 Z M16.6783352,33.4852244 C15.9363944,33.4852244 15.3332648,32.8815284 15.3332648,32.1395525 C15.3332648,31.3975767 15.9363944,30.7944187 16.6783352,30.7944187 C17.4202761,30.7944187 18.0234056,31.3975767 18.0234056,32.1395525 C18.0234056,32.8815284 17.4202761,33.4852244 16.6783352,33.4852244 Z" id="Shape"></path>
                    </g>
                </g>
                <g id="Group-2" transform="translate(399.000000, 1482.000000)" stroke="#E34959" stroke-width="6" fill="#E34959">
                    <ellipse id="Oval-2" cx="8.28767123" cy="8.5" rx="8.28767123" ry="8.5"></ellipse>
                    <ellipse id="Oval-2" opacity="0.601245435" cx="55" cy="8.5" rx="8.28767123" ry="8.5"></ellipse>
                </g>
                <g id="Rectangle-14" transform="translate(857.500000, 465.000000) rotate(90.000000) translate(-857.500000, -465.000000) ">
                    <use fill="#FFFFFF" fill-rule="evenodd" xlink:href="#path-7"></use>
                    <rect stroke="#FFFFFF" stroke-width="4" x="783.5" y="458.5" width="148" height="13" rx="6.5"></rect>
                </g>
                <text id="MONDAY-Today" font-family="AvenirNext-Bold, Avenir Next" font-size="32" font-weight="bold" letter-spacing="5.33333349" fill="#2C2D2D">
                    <tspan x="127" y="699">MONDAY </tspan>
                    <tspan x="321.453334" y="699" font-family="AvenirNext-Medium, Avenir Next" font-weight="400">Today</tspan>
                </text>
                <path d="M126.487013,716.5 L742.5,716.5" id="Line" stroke="#979797" opacity="0.430027174" stroke-linecap="square"></path>
                <path d="M126.5,814.5 L741.708095,814.5" id="Line" stroke="#979797" opacity="0.430027174" stroke-linecap="square"></path>
                <path d="M127.5,913.5 L742.708095,913.5" id="Line" stroke="#979797" opacity="0.430027174" stroke-linecap="square"></path>
                <path d="M127.5,1008.5 L742.708095,1008.5" id="Line" stroke="#979797" opacity="0.430027174" stroke-linecap="square"></path>
                <path d="M127.5,1103.5 L742.708095,1103.5" id="Line" stroke="#979797" opacity="0.430027174" stroke-linecap="square"></path>
                <path d="M127.5,1198.5 L742.708095,1198.5" id="Line" stroke="#979797" opacity="0.430027174" stroke-linecap="square"></path>
                <path d="M127.5,1294.5 L742.708095,1294.5" id="Line" stroke="#979797" opacity="0.430027174" stroke-linecap="square"></path>
                <text id="Monday-Tuesday-Wedne" font-family="AvenirNext-DemiBold, Avenir Next" font-size="25" font-weight="500" line-spacing="32" letter-spacing="4" fill="#2C2D2D">
                    <tspan x="127" y="778">Monday</tspan>
                    <tspan x="138.575" y="816.149841"></tspan>
                    <tspan x="138.575" y="848.149841"></tspan>
                    <tspan x="127" y="874">Tuesday</tspan>
                    <tspan x="138.575" y="912.149841"></tspan>
                    <tspan x="138.575" y="944.149841"></tspan>
                    <tspan x="127" y="970">Wednesday</tspan>
                    <tspan x="138.575" y="1008.14984"></tspan>
                    <tspan x="138.575" y="1040.14984"></tspan>
                    <tspan x="127" y="1066">Thursday</tspan>
                    <tspan x="138.575" y="1104.14984"></tspan>
                    <tspan x="138.575" y="1136.14984"></tspan>
                    <tspan x="127" y="1162">Friday</tspan>
                    <tspan x="138.575" y="1200.14984"></tspan>
                    <tspan x="138.575" y="1232.14984"></tspan>
                    <tspan x="127" y="1258">Saturday</tspan>
                    <tspan x="138.575" y="1296.14984"></tspan>
                    <tspan x="138.575" y="1328.14984"></tspan>
                    <tspan x="127" y="1354">Sunday</tspan>
                </text>
                <text id="Cloudy-Cloudy-Sunny" font-family="AvenirNext-DemiBold, Avenir Next" font-size="20" font-weight="500" line-spacing="31" letter-spacing="3.20000005" fill-opacity="0.705700861" fill="#2C2D2D">
                    <tspan x="656.74" y="790">Cloudy</tspan>
                    <tspan x="742" y="821"></tspan>
                    <tspan x="742" y="852"></tspan>
                    <tspan x="656.74" y="883">Cloudy</tspan>
                    <tspan x="742" y="914" line-spacing="34"></tspan>
                    <tspan x="742" y="948" line-spacing="34"></tspan>
                    <tspan x="532.579999" y="982" line-spacing="34">Sunny with cloud</tspan>
                    <tspan x="742" y="1016"></tspan>
                    <tspan x="742" y="1047"></tspan>
                    <tspan x="669.34" y="1078">Sunny</tspan>
                    <tspan x="742" y="1109"></tspan>
                    <tspan x="742" y="1140"></tspan>
                    <tspan x="669.34" y="1171">Sunny</tspan>
                    <tspan x="742" y="1202"></tspan>
                    <tspan x="742" y="1233" line-spacing="37"></tspan>
                    <tspan x="669.34" y="1270" line-spacing="37">Sunny</tspan>
                    <tspan x="742" y="1307"></tspan>
                    <tspan x="742" y="1338"></tspan>
                    <tspan x="669.34" y="1369">Sunny</tspan>
                </text>
                <text id="12-5-12-5-13-8-15-8" font-family="Arial-BoldMT, Arial" font-size="30" font-weight="bold" line-spacing="48" letter-spacing="5" fill="#81B3AD">
                    <tspan x="662.448277" y="755">12</tspan>
                    <tspan x="705.817418" y="755" fill-opacity="0.475628397"> 5</tspan>
                    <tspan x="740.836949" y="755"></tspan>
                    <tspan x="459" y="755">    </tspan>
                    <tspan x="662.448277" y="851">12 </tspan>
                    <tspan x="719.152379" y="851" fill-opacity="0.463994565">5</tspan>
                    <tspan x="740.836949" y="899"></tspan>
                    <tspan x="662.448277" y="947">13 </tspan>
                    <tspan x="719.152379" y="947" fill-opacity="0.462494339">8</tspan>
                    <tspan x="740.836949" y="995"></tspan>
                    <tspan x="662.448277" y="1043">15 </tspan>
                    <tspan x="719.152379" y="1043" fill-opacity="0.467108243">8</tspan>
                    <tspan x="740.836949" y="1091"></tspan>
                    <tspan x="662.448277" y="1139">16 </tspan>
                    <tspan x="719.152379" y="1139" fill-opacity="0.460144928">8</tspan>
                    <tspan x="740.836949" y="1187"></tspan>
                    <tspan x="662.448277" y="1235">16 </tspan>
                    <tspan x="719.152379" y="1235" fill-opacity="0.484941123">6</tspan>
                    <tspan x="740.836949" y="1235"></tspan>
                    <tspan x="740.836949" y="1283"></tspan>
                    <tspan x="662.448277" y="1331">18 </tspan>
                    <tspan x="719.152379" y="1331" fill-opacity="0.478006114">6</tspan>
                </text>
                <text id="12-6" font-family="Arial-BoldMT, Arial" font-size="30" font-weight="bold" line-spacing="47" letter-spacing="5">
                    <tspan x="660.448277" y="688" fill="#E34959">12 </tspan>
                    <tspan x="717.152379" y="688" fill="#81B3AD" fill-opacity="0.566377944">6</tspan>
                    <tspan x="738.836949" y="688" fill="#E34959"></tspan>
                </text>
                <g id="noun_322853_cc" transform="translate(416.000000, 1227.000000)" fill-rule="nonzero" fill="#7EB1AC">
                    <path d="M19.5,29.5160211 C14.0601158,29.5160211 9.63423158,25.0901368 9.63423158,19.6498421 C9.63423158,14.2095474 14.0601158,9.78407368 19.5,9.78407368 C24.9402947,9.78407368 29.3657684,14.2095474 29.3657684,19.6498421 C29.3657684,25.0901368 24.9402947,29.5160211 19.5,29.5160211 Z M19.5,29.5160211 C14.0601158,29.5160211 9.63423158,25.0901368 9.63423158,19.6498421 C9.63423158,14.2095474 14.0601158,9.78407368 19.5,9.78407368 C24.9402947,9.78407368 29.3657684,14.2095474 29.3657684,19.6498421 C29.3657684,25.0901368 24.9402947,29.5160211 19.5,29.5160211 Z M19.5,12.6577579 C15.6439263,12.6577579 12.5079158,15.7945895 12.5079158,19.6498421 C12.5079158,23.5059158 15.6443368,26.6423368 19.5,26.6423368 C23.3556632,26.6423368 26.4920842,23.5055053 26.4920842,19.6498421 C26.4920842,15.7945895 23.3556632,12.6577579 19.5,12.6577579 Z" id="Shape"></path>
                    <path d="M19.5,7.38947368 C18.7064526,7.38947368 18.0631579,6.74617895 18.0631579,5.95263158 L18.0631579,1.64210526 C18.0631579,0.848147368 18.7064526,0.205263158 19.5,0.205263158 C20.2939579,0.205263158 20.9368421,0.848147368 20.9368421,1.64210526 L20.9368421,5.95263158 C20.9368421,6.74617895 20.2939579,7.38947368 19.5,7.38947368 Z" id="Shape"></path>
                    <path d="M19.5,39 C18.7064526,39 18.0631579,38.3567053 18.0631579,37.5631579 L18.0631579,33.2526316 C18.0631579,32.4590842 18.7064526,31.8157895 19.5,31.8157895 C20.2939579,31.8157895 20.9368421,32.4590842 20.9368421,33.2526316 L20.9368421,37.5631579 C20.9368421,38.3567053 20.2939579,39 19.5,39 Z" id="Shape"></path>
                    <path d="M37.4601158,21.0394737 L33.15,21.0394737 C32.3560421,21.0394737 31.7131579,20.3961789 31.7131579,19.6022211 C31.7131579,18.8086737 32.3560421,18.1657895 33.15,18.1657895 L37.4601158,18.1657895 C38.2540737,18.1657895 38.8973684,18.8086737 38.8973684,19.6022211 C38.8973684,20.3961789 38.2540737,21.0394737 37.4601158,21.0394737 Z" id="Shape"></path>
                    <path d="M5.85,21.0394737 L1.53947368,21.0394737 C0.745926316,21.0394737 0.102631579,20.3961789 0.102631579,19.6022211 C0.102631579,18.8086737 0.745926316,18.1657895 1.53947368,18.1657895 L5.85,18.1657895 C6.64395789,18.1657895 7.28684211,18.8086737 7.28684211,19.6022211 C7.28684211,20.3961789 6.64395789,21.0394737 5.85,21.0394737 Z" id="Shape"></path>
                    <path d="M32.2004526,33.7395158 C31.8326211,33.7395158 31.4643789,33.5999368 31.1839895,33.3191368 L28.1362421,30.2705684 C27.5758737,29.7089684 27.5758737,28.7992421 28.1366526,28.2384632 C28.6982526,27.6776842 29.6075684,27.6772737 30.1687579,28.2388737 L33.2165053,31.2874421 C33.7768737,31.8486316 33.7768737,32.7587684 33.2160947,33.3195474 C32.9357053,33.5999368 32.5678737,33.7395158 32.2004526,33.7395158 Z" id="Shape"></path>
                    <path d="M9.84852632,11.3875895 C9.48069474,11.3875895 9.11286316,11.2471895 8.83247368,10.9663895 L5.78472632,7.91823158 C5.22394737,7.35704211 5.22394737,6.44772632 5.78513684,5.88653684 C6.34591579,5.32534737 7.25564211,5.32534737 7.81724211,5.88653684 L10.8649895,8.93469474 C11.4257684,9.49629474 11.4257684,10.4056105 10.8645789,10.9672105 C10.5837789,11.2471895 10.2159474,11.3875895 9.84852632,11.3875895 Z" id="Shape"></path>
                    <path d="M6.79995789,33.7386947 C6.43212632,33.7386947 6.06429474,33.5982947 5.78390526,33.3179053 C5.22312632,32.7567158 5.22312632,31.8469895 5.78390526,31.2858 L8.83288421,28.2384632 C9.39407368,27.6776842 10.3033895,27.6772737 10.8649895,28.2388737 C11.4257684,28.7996526 11.4257684,29.7097895 10.8645789,30.2709789 L7.8156,33.3187263 C7.53562105,33.5982947 7.16778947,33.7386947 6.79995789,33.7386947 Z" id="Shape"></path>
                    <path d="M29.1527053,11.3871789 C28.7848737,11.3871789 28.4174526,11.2467789 28.1366526,10.9663895 C27.5758737,10.4052 27.5758737,9.49547368 28.1366526,8.93428421 L31.1848105,5.88653684 C31.7464105,5.32616842 32.6557263,5.32575789 33.2165053,5.88694737 C33.7776947,6.44813684 33.7776947,7.35786316 33.2165053,7.91905263 L30.1683474,10.9668 C29.8879579,11.2467789 29.5201263,11.3871789 29.1527053,11.3871789 Z" id="Shape"></path>
                </g>
                <g id="noun_322853_cc" transform="translate(416.000000, 1322.000000)" fill-rule="nonzero" fill="#7EB1AC">
                    <path d="M19.5,29.5160211 C14.0601158,29.5160211 9.63423158,25.0901368 9.63423158,19.6498421 C9.63423158,14.2095474 14.0601158,9.78407368 19.5,9.78407368 C24.9402947,9.78407368 29.3657684,14.2095474 29.3657684,19.6498421 C29.3657684,25.0901368 24.9402947,29.5160211 19.5,29.5160211 Z M19.5,29.5160211 C14.0601158,29.5160211 9.63423158,25.0901368 9.63423158,19.6498421 C9.63423158,14.2095474 14.0601158,9.78407368 19.5,9.78407368 C24.9402947,9.78407368 29.3657684,14.2095474 29.3657684,19.6498421 C29.3657684,25.0901368 24.9402947,29.5160211 19.5,29.5160211 Z M19.5,12.6577579 C15.6439263,12.6577579 12.5079158,15.7945895 12.5079158,19.6498421 C12.5079158,23.5059158 15.6443368,26.6423368 19.5,26.6423368 C23.3556632,26.6423368 26.4920842,23.5055053 26.4920842,19.6498421 C26.4920842,15.7945895 23.3556632,12.6577579 19.5,12.6577579 Z" id="Shape"></path>
                    <path d="M19.5,7.38947368 C18.7064526,7.38947368 18.0631579,6.74617895 18.0631579,5.95263158 L18.0631579,1.64210526 C18.0631579,0.848147368 18.7064526,0.205263158 19.5,0.205263158 C20.2939579,0.205263158 20.9368421,0.848147368 20.9368421,1.64210526 L20.9368421,5.95263158 C20.9368421,6.74617895 20.2939579,7.38947368 19.5,7.38947368 Z" id="Shape"></path>
                    <path d="M19.5,39 C18.7064526,39 18.0631579,38.3567053 18.0631579,37.5631579 L18.0631579,33.2526316 C18.0631579,32.4590842 18.7064526,31.8157895 19.5,31.8157895 C20.2939579,31.8157895 20.9368421,32.4590842 20.9368421,33.2526316 L20.9368421,37.5631579 C20.9368421,38.3567053 20.2939579,39 19.5,39 Z" id="Shape"></path>
                    <path d="M37.4601158,21.0394737 L33.15,21.0394737 C32.3560421,21.0394737 31.7131579,20.3961789 31.7131579,19.6022211 C31.7131579,18.8086737 32.3560421,18.1657895 33.15,18.1657895 L37.4601158,18.1657895 C38.2540737,18.1657895 38.8973684,18.8086737 38.8973684,19.6022211 C38.8973684,20.3961789 38.2540737,21.0394737 37.4601158,21.0394737 Z" id="Shape"></path>
                    <path d="M5.85,21.0394737 L1.53947368,21.0394737 C0.745926316,21.0394737 0.102631579,20.3961789 0.102631579,19.6022211 C0.102631579,18.8086737 0.745926316,18.1657895 1.53947368,18.1657895 L5.85,18.1657895 C6.64395789,18.1657895 7.28684211,18.8086737 7.28684211,19.6022211 C7.28684211,20.3961789 6.64395789,21.0394737 5.85,21.0394737 Z" id="Shape"></path>
                    <path d="M32.2004526,33.7395158 C31.8326211,33.7395158 31.4643789,33.5999368 31.1839895,33.3191368 L28.1362421,30.2705684 C27.5758737,29.7089684 27.5758737,28.7992421 28.1366526,28.2384632 C28.6982526,27.6776842 29.6075684,27.6772737 30.1687579,28.2388737 L33.2165053,31.2874421 C33.7768737,31.8486316 33.7768737,32.7587684 33.2160947,33.3195474 C32.9357053,33.5999368 32.5678737,33.7395158 32.2004526,33.7395158 Z" id="Shape"></path>
                    <path d="M9.84852632,11.3875895 C9.48069474,11.3875895 9.11286316,11.2471895 8.83247368,10.9663895 L5.78472632,7.91823158 C5.22394737,7.35704211 5.22394737,6.44772632 5.78513684,5.88653684 C6.34591579,5.32534737 7.25564211,5.32534737 7.81724211,5.88653684 L10.8649895,8.93469474 C11.4257684,9.49629474 11.4257684,10.4056105 10.8645789,10.9672105 C10.5837789,11.2471895 10.2159474,11.3875895 9.84852632,11.3875895 Z" id="Shape"></path>
                    <path d="M6.79995789,33.7386947 C6.43212632,33.7386947 6.06429474,33.5982947 5.78390526,33.3179053 C5.22312632,32.7567158 5.22312632,31.8469895 5.78390526,31.2858 L8.83288421,28.2384632 C9.39407368,27.6776842 10.3033895,27.6772737 10.8649895,28.2388737 C11.4257684,28.7996526 11.4257684,29.7097895 10.8645789,30.2709789 L7.8156,33.3187263 C7.53562105,33.5982947 7.16778947,33.7386947 6.79995789,33.7386947 Z" id="Shape"></path>
                    <path d="M29.1527053,11.3871789 C28.7848737,11.3871789 28.4174526,11.2467789 28.1366526,10.9663895 C27.5758737,10.4052 27.5758737,9.49547368 28.1366526,8.93428421 L31.1848105,5.88653684 C31.7464105,5.32616842 32.6557263,5.32575789 33.2165053,5.88694737 C33.7776947,6.44813684 33.7776947,7.35786316 33.2165053,7.91905263 L30.1683474,10.9668 C29.8879579,11.2467789 29.5201263,11.3871789 29.1527053,11.3871789 Z" id="Shape"></path>
                </g>
                <g id="noun_322853_cc" transform="translate(416.000000, 1038.000000)" fill-rule="nonzero" fill="#7EB1AC">
                    <path d="M19.5,29.5160211 C14.0601158,29.5160211 9.63423158,25.0901368 9.63423158,19.6498421 C9.63423158,14.2095474 14.0601158,9.78407368 19.5,9.78407368 C24.9402947,9.78407368 29.3657684,14.2095474 29.3657684,19.6498421 C29.3657684,25.0901368 24.9402947,29.5160211 19.5,29.5160211 Z M19.5,29.5160211 C14.0601158,29.5160211 9.63423158,25.0901368 9.63423158,19.6498421 C9.63423158,14.2095474 14.0601158,9.78407368 19.5,9.78407368 C24.9402947,9.78407368 29.3657684,14.2095474 29.3657684,19.6498421 C29.3657684,25.0901368 24.9402947,29.5160211 19.5,29.5160211 Z M19.5,12.6577579 C15.6439263,12.6577579 12.5079158,15.7945895 12.5079158,19.6498421 C12.5079158,23.5059158 15.6443368,26.6423368 19.5,26.6423368 C23.3556632,26.6423368 26.4920842,23.5055053 26.4920842,19.6498421 C26.4920842,15.7945895 23.3556632,12.6577579 19.5,12.6577579 Z" id="Shape"></path>
                    <path d="M19.5,7.38947368 C18.7064526,7.38947368 18.0631579,6.74617895 18.0631579,5.95263158 L18.0631579,1.64210526 C18.0631579,0.848147368 18.7064526,0.205263158 19.5,0.205263158 C20.2939579,0.205263158 20.9368421,0.848147368 20.9368421,1.64210526 L20.9368421,5.95263158 C20.9368421,6.74617895 20.2939579,7.38947368 19.5,7.38947368 Z" id="Shape"></path>
                    <path d="M19.5,39 C18.7064526,39 18.0631579,38.3567053 18.0631579,37.5631579 L18.0631579,33.2526316 C18.0631579,32.4590842 18.7064526,31.8157895 19.5,31.8157895 C20.2939579,31.8157895 20.9368421,32.4590842 20.9368421,33.2526316 L20.9368421,37.5631579 C20.9368421,38.3567053 20.2939579,39 19.5,39 Z" id="Shape"></path>
                    <path d="M37.4601158,21.0394737 L33.15,21.0394737 C32.3560421,21.0394737 31.7131579,20.3961789 31.7131579,19.6022211 C31.7131579,18.8086737 32.3560421,18.1657895 33.15,18.1657895 L37.4601158,18.1657895 C38.2540737,18.1657895 38.8973684,18.8086737 38.8973684,19.6022211 C38.8973684,20.3961789 38.2540737,21.0394737 37.4601158,21.0394737 Z" id="Shape"></path>
                    <path d="M5.85,21.0394737 L1.53947368,21.0394737 C0.745926316,21.0394737 0.102631579,20.3961789 0.102631579,19.6022211 C0.102631579,18.8086737 0.745926316,18.1657895 1.53947368,18.1657895 L5.85,18.1657895 C6.64395789,18.1657895 7.28684211,18.8086737 7.28684211,19.6022211 C7.28684211,20.3961789 6.64395789,21.0394737 5.85,21.0394737 Z" id="Shape"></path>
                    <path d="M32.2004526,33.7395158 C31.8326211,33.7395158 31.4643789,33.5999368 31.1839895,33.3191368 L28.1362421,30.2705684 C27.5758737,29.7089684 27.5758737,28.7992421 28.1366526,28.2384632 C28.6982526,27.6776842 29.6075684,27.6772737 30.1687579,28.2388737 L33.2165053,31.2874421 C33.7768737,31.8486316 33.7768737,32.7587684 33.2160947,33.3195474 C32.9357053,33.5999368 32.5678737,33.7395158 32.2004526,33.7395158 Z" id="Shape"></path>
                    <path d="M9.84852632,11.3875895 C9.48069474,11.3875895 9.11286316,11.2471895 8.83247368,10.9663895 L5.78472632,7.91823158 C5.22394737,7.35704211 5.22394737,6.44772632 5.78513684,5.88653684 C6.34591579,5.32534737 7.25564211,5.32534737 7.81724211,5.88653684 L10.8649895,8.93469474 C11.4257684,9.49629474 11.4257684,10.4056105 10.8645789,10.9672105 C10.5837789,11.2471895 10.2159474,11.3875895 9.84852632,11.3875895 Z" id="Shape"></path>
                    <path d="M6.79995789,33.7386947 C6.43212632,33.7386947 6.06429474,33.5982947 5.78390526,33.3179053 C5.22312632,32.7567158 5.22312632,31.8469895 5.78390526,31.2858 L8.83288421,28.2384632 C9.39407368,27.6776842 10.3033895,27.6772737 10.8649895,28.2388737 C11.4257684,28.7996526 11.4257684,29.7097895 10.8645789,30.2709789 L7.8156,33.3187263 C7.53562105,33.5982947 7.16778947,33.7386947 6.79995789,33.7386947 Z" id="Shape"></path>
                    <path d="M29.1527053,11.3871789 C28.7848737,11.3871789 28.4174526,11.2467789 28.1366526,10.9663895 C27.5758737,10.4052 27.5758737,9.49547368 28.1366526,8.93428421 L31.1848105,5.88653684 C31.7464105,5.32616842 32.6557263,5.32575789 33.2165053,5.88694737 C33.7776947,6.44813684 33.7776947,7.35786316 33.2165053,7.91905263 L30.1683474,10.9668 C29.8879579,11.2467789 29.5201263,11.3871789 29.1527053,11.3871789 Z" id="Shape"></path>
                </g>
                <g id="noun_322853_cc" transform="translate(416.000000, 1134.000000)" fill-rule="nonzero" fill="#7EB1AC">
                    <path d="M19.5,29.5160211 C14.0601158,29.5160211 9.63423158,25.0901368 9.63423158,19.6498421 C9.63423158,14.2095474 14.0601158,9.78407368 19.5,9.78407368 C24.9402947,9.78407368 29.3657684,14.2095474 29.3657684,19.6498421 C29.3657684,25.0901368 24.9402947,29.5160211 19.5,29.5160211 Z M19.5,29.5160211 C14.0601158,29.5160211 9.63423158,25.0901368 9.63423158,19.6498421 C9.63423158,14.2095474 14.0601158,9.78407368 19.5,9.78407368 C24.9402947,9.78407368 29.3657684,14.2095474 29.3657684,19.6498421 C29.3657684,25.0901368 24.9402947,29.5160211 19.5,29.5160211 Z M19.5,12.6577579 C15.6439263,12.6577579 12.5079158,15.7945895 12.5079158,19.6498421 C12.5079158,23.5059158 15.6443368,26.6423368 19.5,26.6423368 C23.3556632,26.6423368 26.4920842,23.5055053 26.4920842,19.6498421 C26.4920842,15.7945895 23.3556632,12.6577579 19.5,12.6577579 Z" id="Shape"></path>
                    <path d="M19.5,7.38947368 C18.7064526,7.38947368 18.0631579,6.74617895 18.0631579,5.95263158 L18.0631579,1.64210526 C18.0631579,0.848147368 18.7064526,0.205263158 19.5,0.205263158 C20.2939579,0.205263158 20.9368421,0.848147368 20.9368421,1.64210526 L20.9368421,5.95263158 C20.9368421,6.74617895 20.2939579,7.38947368 19.5,7.38947368 Z" id="Shape"></path>
                    <path d="M19.5,39 C18.7064526,39 18.0631579,38.3567053 18.0631579,37.5631579 L18.0631579,33.2526316 C18.0631579,32.4590842 18.7064526,31.8157895 19.5,31.8157895 C20.2939579,31.8157895 20.9368421,32.4590842 20.9368421,33.2526316 L20.9368421,37.5631579 C20.9368421,38.3567053 20.2939579,39 19.5,39 Z" id="Shape"></path>
                    <path d="M37.4601158,21.0394737 L33.15,21.0394737 C32.3560421,21.0394737 31.7131579,20.3961789 31.7131579,19.6022211 C31.7131579,18.8086737 32.3560421,18.1657895 33.15,18.1657895 L37.4601158,18.1657895 C38.2540737,18.1657895 38.8973684,18.8086737 38.8973684,19.6022211 C38.8973684,20.3961789 38.2540737,21.0394737 37.4601158,21.0394737 Z" id="Shape"></path>
                    <path d="M5.85,21.0394737 L1.53947368,21.0394737 C0.745926316,21.0394737 0.102631579,20.3961789 0.102631579,19.6022211 C0.102631579,18.8086737 0.745926316,18.1657895 1.53947368,18.1657895 L5.85,18.1657895 C6.64395789,18.1657895 7.28684211,18.8086737 7.28684211,19.6022211 C7.28684211,20.3961789 6.64395789,21.0394737 5.85,21.0394737 Z" id="Shape"></path>
                    <path d="M32.2004526,33.7395158 C31.8326211,33.7395158 31.4643789,33.5999368 31.1839895,33.3191368 L28.1362421,30.2705684 C27.5758737,29.7089684 27.5758737,28.7992421 28.1366526,28.2384632 C28.6982526,27.6776842 29.6075684,27.6772737 30.1687579,28.2388737 L33.2165053,31.2874421 C33.7768737,31.8486316 33.7768737,32.7587684 33.2160947,33.3195474 C32.9357053,33.5999368 32.5678737,33.7395158 32.2004526,33.7395158 Z" id="Shape"></path>
                    <path d="M9.84852632,11.3875895 C9.48069474,11.3875895 9.11286316,11.2471895 8.83247368,10.9663895 L5.78472632,7.91823158 C5.22394737,7.35704211 5.22394737,6.44772632 5.78513684,5.88653684 C6.34591579,5.32534737 7.25564211,5.32534737 7.81724211,5.88653684 L10.8649895,8.93469474 C11.4257684,9.49629474 11.4257684,10.4056105 10.8645789,10.9672105 C10.5837789,11.2471895 10.2159474,11.3875895 9.84852632,11.3875895 Z" id="Shape"></path>
                    <path d="M6.79995789,33.7386947 C6.43212632,33.7386947 6.06429474,33.5982947 5.78390526,33.3179053 C5.22312632,32.7567158 5.22312632,31.8469895 5.78390526,31.2858 L8.83288421,28.2384632 C9.39407368,27.6776842 10.3033895,27.6772737 10.8649895,28.2388737 C11.4257684,28.7996526 11.4257684,29.7097895 10.8645789,30.2709789 L7.8156,33.3187263 C7.53562105,33.5982947 7.16778947,33.7386947 6.79995789,33.7386947 Z" id="Shape"></path>
                    <path d="M29.1527053,11.3871789 C28.7848737,11.3871789 28.4174526,11.2467789 28.1366526,10.9663895 C27.5758737,10.4052 27.5758737,9.49547368 28.1366526,8.93428421 L31.1848105,5.88653684 C31.7464105,5.32616842 32.6557263,5.32575789 33.2165053,5.88694737 C33.7776947,6.44813684 33.7776947,7.35786316 33.2165053,7.91905263 L30.1683474,10.9668 C29.8879579,11.2467789 29.5201263,11.3871789 29.1527053,11.3871789 Z" id="Shape"></path>
                </g>
                <g id="noun_322854_cc" transform="translate(411.000000, 939.000000)" fill-rule="nonzero" fill="#7EB1AC">
                    <path d="M18.9523918,7.32371831 C19.7267938,7.32371831 20.354701,6.69346479 20.354701,5.91616901 L20.354701,1.69402817 C20.354701,0.916732394 19.7267938,0.286478873 18.9523918,0.286478873 C18.1784948,0.286478873 17.5505876,0.916732394 17.5505876,1.69402817 L17.5505876,5.91616901 C17.5500825,6.69346479 18.1779897,7.32371831 18.9523918,7.32371831 Z" id="Shape"></path>
                    <path d="M7.03427835,19.2868732 C7.03427835,18.5090704 6.40637113,17.8788169 5.63196907,17.8788169 L1.42554639,17.8788169 C0.65114433,17.8788169 0.0232371134,18.5090704 0.0232371134,19.2868732 C0.0232371134,20.063662 0.65114433,20.6934085 1.42554639,20.6934085 L5.63196907,20.6934085 C6.40637113,20.6934085 7.03427835,20.063662 7.03427835,19.2868732 Z" id="Shape"></path>
                    <path d="M8.5426701,10.8273803 C8.81646392,11.1021972 9.17461856,11.2396056 9.53378351,11.2396056 C9.8924433,11.2396056 10.2511031,11.1021972 10.5248969,10.8273803 C11.0719794,10.2777465 11.0719794,9.38687324 10.5254021,8.83723944 L7.55105155,5.85126761 C7.00396907,5.30112676 6.11641237,5.30112676 5.56781443,5.85076056 C5.02073196,6.40039437 5.02073196,7.29177465 5.56781443,7.84140845 L8.5426701,10.8273803 Z" id="Shape"></path>
                    <path d="M8.54317526,27.7448451 L5.56781443,30.7303099 C5.02073196,31.2799437 5.02073196,32.1708169 5.56781443,32.7209577 C5.84160825,32.9957746 6.2007732,33.1331831 6.55943299,33.1331831 C6.91859794,33.1331831 7.27675258,32.9957746 7.55105155,32.7214648 L10.5259072,29.736 C11.0734948,29.1858592 11.0734948,28.2949859 10.5264124,27.7448451 C9.97831959,27.1957183 9.09076289,27.1957183 8.54317526,27.7448451 Z" id="Shape"></path>
                    <path d="M28.3720103,11.2396056 C28.7306701,11.2396056 29.0888247,11.1021972 29.3631237,10.8278873 L32.3384845,7.84242254 C32.8860722,7.29278873 32.8860722,6.40191549 32.3384845,5.85177465 C31.7903918,5.30214085 30.9033402,5.30214085 30.3552474,5.85177465 L27.3808969,8.83673239 C26.832299,9.3863662 26.832299,10.2772394 27.3808969,10.8268732 C27.6541856,11.1021972 28.0128454,11.2396056 28.3720103,11.2396056 Z" id="Shape"></path>
                    <path d="M19.1213454,29.8730147 C13.6814612,29.8730147 9.25557695,25.4471305 9.25557695,20.0068358 C9.25557695,14.566541 13.6814612,10.1410673 19.1213454,10.1410673 C24.5616401,10.1410673 28.9871138,14.566541 28.9871138,20.0068358 C28.9871138,25.4471305 24.5616401,29.8730147 19.1213454,29.8730147 Z M19.1213454,29.8730147 C13.6814612,29.8730147 9.25557695,25.4471305 9.25557695,20.0068358 C9.25557695,14.566541 13.6814612,10.1410673 19.1213454,10.1410673 C24.5616401,10.1410673 28.9871138,14.566541 28.9871138,20.0068358 C28.9871138,25.4471305 24.5616401,29.8730147 19.1213454,29.8730147 Z M19.1213454,13.0147515 C15.2652717,13.0147515 12.1292612,16.1515831 12.1292612,20.0068358 C12.1292612,23.8629094 15.2656822,26.9993305 19.1213454,26.9993305 C22.9770085,26.9993305 26.1134296,23.8624989 26.1134296,20.0068358 C26.1134296,16.1515831 22.9770085,13.0147515 19.1213454,13.0147515 Z" id="Shape"></path>
                </g>
                <g id="noun_541039_cc" transform="translate(416.000000, 754.000000)" fill-rule="nonzero" fill="#7EB1AC">
                    <path d="M28.2333333,108.701667 C27.1833333,103.756667 22.8277778,100 17.5,100 C13.2611111,100 9.64444444,102.376667 7.81666667,105.826667 C3.42222222,106.248333 0,109.928333 0,114.375 C0,119.128333 3.92777778,123 8.75,123 L27.7277778,123 C31.7333333,123 35,119.78 35,115.793333 C35,111.998333 32.0055556,108.893333 28.2333333,108.701667 Z" id="Shape"></path>
                    <path d="M36.2333333,207.701667 C35.1833333,202.756667 30.8277778,199 25.5,199 C21.2611111,199 17.6444444,201.376667 15.8166667,204.826667 C11.4222222,205.248333 8,208.928333 8,213.375 C8,218.128333 11.9277778,222 16.75,222 L35.7277778,222 C39.7333333,222 43,218.78 43,214.793333 C43,210.998333 40.0055556,207.893333 36.2333333,207.701667 Z" id="Shape"></path>
                    <path d="M28.2333333,8.70166667 C27.1833333,3.75666667 22.8277778,0 17.5,0 C13.2611111,0 9.64444444,2.37666667 7.81666667,5.82666667 C3.42222222,6.24833333 0,9.92833333 0,14.375 C0,19.1283333 3.92777778,23 8.75,23 L27.7277778,23 C31.7333333,23 35,19.78 35,15.7933333 C35,11.9983333 32.0055556,8.89333333 28.2333333,8.70166667 Z" id="Shape"></path>
                </g>
                <path d="M423,966.850847 C423,966.850847 423.991607,963.169497 426.490458,961.089062 C428.989309,959.008627 431.152355,958.904762 431.152355,958.904762 C431.152355,958.904762 432.34687,956.315353 434.461368,954.822252 C436.575865,953.329151 438.213675,953 438.213675,953" id="Path-38" stroke="#EAEDED"></path>
            </g>
        </g>
    </g>
</svg>