<?xml version="1.0" encoding="UTF-8"?>
<svg width="867px" height="1787px" viewBox="0 0 867 1787" version="1.1" xmlns="http://www.w3.org/2000/svg" xmlns:xlink="http://www.w3.org/1999/xlink">
    <!-- Generator: Sketch 43.2 (39069) - http://www.bohemiancoding.com/sketch -->
    <title>Group 11</title>
    <desc>Created with Sketch.</desc>
    <defs>
        <path d="M9,99.0672788 C9,43.8333355 53.7680919,-0.518551896 108.993901,0.0045805836 L752.05974,6.09609169 C807.284846,6.61921752 852.240055,51.811256 852.470041,107.043117 L858.999136,1675.02307 C859.229107,1730.25145 814.648783,1775.0229 759.413693,1775.0229 L109.001843,1775.0229 C53.7723503,1775.0229 9,1730.24809 9,1675.01299 L9,99.0672788 Z" id="path-1"></path>
        <filter x="-0.9%" y="-0.5%" width="102.4%" height="101.1%" filterUnits="objectBoundingBox" id="filter-2">
            <feOffset dx="2" dy="2" in="SourceAlpha" result="shadowOffsetOuter1"></feOffset>
            <feGaussianBlur stdDeviation="3" in="shadowOffsetOuter1" result="shadowBlurOuter1"></feGaussianBlur>
            <feComposite in="shadowBlurOuter1" in2="SourceAlpha" operator="out" result="shadowBlurOuter1"></feComposite>
            <feColorMatrix values="0 0 0 0 0   0 0 0 0 0   0 0 0 0 0  0 0 0 0.5 0" type="matrix" in="shadowBlurOuter1"></feColorMatrix>
        </filter>
        <rect id="path-3" x="-48" y="464" width="113" height="17" rx="8"></rect>
        <rect id="path-4" x="-26.5" y="260.5" width="72" height="17" rx="8"></rect>
        <rect id="path-5" x="-47" y="613" width="113" height="17" rx="8"></rect>
        <rect id="path-6" x="51" y="216" width="755" height="1342"></rect>
        <linearGradient x1="-1.43509116%" y1="50%" x2="100%" y2="50%" id="linearGradient-7">
            <stop stop-color="#7EB1AC" offset="0%"></stop>
            <stop stop-color="#9ECAB1" offset="100%"></stop>
        </linearGradient>
        <linearGradient x1="50%" y1="0%" x2="50%" y2="100%" id="linearGradient-8">
            <stop stop-color="#B5D9D7" offset="0%"></stop>
            <stop stop-color="#70A7A2" offset="100%"></stop>
        </linearGradient>
    </defs>
    <g id="Page-1" stroke="none" stroke-width="1" fill="none" fill-rule="evenodd">
        <g id="A4" transform="translate(-314.000000, -369.000000)">
            <g id="Group-11" transform="translate(314.000000, 373.000000)">
                <g id="Rectangle-12">
                    <use fill="black" fill-opacity="1" filter="url(#filter-2)" xlink:href="#path-1"></use>
                    <use fill="#FFFFFF" fill-rule="evenodd" xlink:href="#path-1"></use>
                    <path stroke="#FFFFFF" stroke-width="15" d="M16.5,99.0672788 C16.5,48.0027955 57.8672168,7.02061399 108.922859,7.50424412 L751.988698,13.5957552 C803.112942,14.0800352 844.757206,55.9459072 844.970106,107.074347 L851.499201,1675.0543 C851.711882,1726.13036 810.492467,1767.5229 759.413693,1767.5229 L109.001843,1767.5229 C57.9142098,1767.5229 16.5,1726.10568 16.5,1675.01299 L16.5,99.0672788 Z"></path>
                </g>
                <circle id="Oval-14" stroke="#979797" stroke-width="4" cx="428.5" cy="73.5" r="6.5"></circle>
                <circle id="Oval-14" stroke="#979797" stroke-width="4" cx="319.5" cy="129.5" r="6.5"></circle>
                <rect id="Rectangle-14" stroke="#979797" stroke-width="4" x="364" y="122" width="128" height="13" rx="6.5"></rect>
                <g id="Rectangle-14" transform="translate(8.500000, 472.500000) rotate(90.000000) translate(-8.500000, -472.500000) ">
                    <use fill="#FFFFFF" fill-rule="evenodd" xlink:href="#path-3"></use>
                    <rect stroke="#FFFFFF" stroke-width="4" x="-46" y="466" width="109" height="13" rx="6.5"></rect>
                </g>
                <g id="Rectangle-14" transform="translate(9.500000, 269.000000) rotate(90.000000) translate(-9.500000, -269.000000) ">
                    <use fill="#FFFFFF" fill-rule="evenodd" xlink:href="#path-4"></use>
                    <rect stroke="#FFFFFF" stroke-width="4" x="-24.5" y="262.5" width="68" height="13" rx="6.5"></rect>
                </g>
                <g id="Rectangle-14" transform="translate(9.500000, 621.500000) rotate(90.000000) translate(-9.500000, -621.500000) ">
                    <use fill="#FFFFFF" fill-rule="evenodd" xlink:href="#path-5"></use>
                    <rect stroke="#FFFFFF" stroke-width="4" x="-45" y="615" width="109" height="13" rx="6.5"></rect>
                </g>
                <circle id="Oval-13" stroke="#979797" stroke-width="14" opacity="0.330785779" cx="427" cy="1657" r="72"></circle>
                <g id="Rectangle-13">
                    <use fill="#F2F2F2" fill-rule="evenodd" xlink:href="#path-6"></use>
                    <rect stroke="#979797" stroke-width="5" x="53.5" y="218.5" width="750" height="1337"></rect>
                </g>
                <text id="9-:-41-AM" font-family="AvenirNext-DemiBold, Avenir Next" font-size="25" font-weight="500" fill="#2C2D2D">
                    <tspan x="379.575904" y="255">9 : 41 AM</tspan>
                </text>
                <circle id="Oval-12" stroke="#2C2D2D" stroke-width="2" fill="#2C2D2D" cx="119.5" cy="248.5" r="6.5"></circle>
                <circle id="Oval-12" stroke="#2C2D2D" stroke-width="2" cx="135.5" cy="248.5" r="6.5"></circle>
                <text id="giffgaff" font-family="AvenirNext-DemiBold, Avenir Next" font-size="20" font-weight="500" letter-spacing="-0.74666667" fill="#000000">
                    <tspan x="168.126667" y="254">giffgaff</tspan>
                </text>
                <circle id="Oval-12" stroke="#2C2D2D" stroke-width="2" cx="151.5" cy="248.5" r="6.5"></circle>
                <g id="noun_996939_cc" transform="translate(240.000000, 238.000000)" fill-rule="nonzero" fill="#2C2D2D">
                    <path d="M5.0301,10.7703916 L8.4942,14.1509779 C9.86236127,12.9035828 11.6479274,12.212599 13.5,12.2138183 C15.3850425,12.2199891 17.1992149,12.9324108 18.5841,14.2103337 L21.9672,10.7595996 C17.28,6.03271431 9.2907,6.33488962 5.0301,10.7703916 Z M10.1196,15.9181639 L13.4838,19.1962264 L16.7994,15.845318 C15.1551,14.1779578 11.853,14.1941458 10.1196,15.9181639 Z M0,5.77640489 L3.429,9.17317918 C6.2505,6.52374919 9.6039,5.12618837 13.5,5.12618837 C17.3961,5.12618837 20.763,6.54263515 23.5899,9.18936714 L27,5.73863298 C19.17,-2.03968337 6.6663,-1.16823135 0,5.77640489 Z" id="Shape"></path>
                </g>
                <text id="100%" font-family="AvenirNext-DemiBold, Avenir Next" font-size="25" font-weight="500" letter-spacing="1" fill="#2C2D2D">
                    <tspan x="653.400904" y="257">100%</tspan>
                </text>
                <circle id="Oval-12" stroke="#2C2D2D" stroke-width="2" fill="#2C2D2D" cx="86.5" cy="248.5" r="6.5"></circle>
                <circle id="Oval-12" stroke="#2C2D2D" stroke-width="2" fill="#2C2D2D" cx="103.5" cy="248.5" r="6.5"></circle>
                <g id="noun_1000667_cc" transform="translate(730.000000, 239.000000)" fill-rule="nonzero" fill="#2C2D2D">
                    <path d="M46.0880625,18.4877778 L46.0880625,15.6201111 L47.5335937,15.6201111 C49.2309375,15.6201111 50.611125,14.6093889 50.611125,13.3672778 L50.611125,7.63272222 C50.611125,6.39061111 49.2309375,5.3795 47.5335937,5.3795 L46.0880625,5.3795 L46.0880625,2.51222222 C46.0880625,1.2705 44.7068125,0.259388889 43.0094687,0.259388889 L3.46640625,0.259388889 C1.7690625,0.259388889 0.388875,1.2705 0.388875,2.51222222 L0.388875,18.4877778 C0.388875,19.7295 1.7690625,20.7406111 3.46640625,20.7406111 L43.0094687,20.7406111 C44.7068125,20.7406111 46.0880625,19.7295 46.0880625,18.4877778 Z M3.46640625,18.6923333 C3.31234375,18.6923333 3.1864375,18.6005556 3.1864375,18.4877778 L3.1864375,2.51222222 C3.1864375,2.39983333 3.31234375,2.30766667 3.46640625,2.30766667 L43.0094687,2.30766667 C43.1640625,2.30766667 43.2894375,2.39983333 43.2894375,2.51222222 L43.2894375,18.4877778 C43.2894375,18.6005556 43.1640625,18.6923333 43.0094687,18.6923333 L3.46640625,18.6923333 L3.46640625,18.6923333 Z M4.79559375,3.67305556 L4.79559375,17.3953889 L41.448125,17.3953889 L41.448125,3.67305556 L4.79559375,3.67305556 Z" id="Shape"></path>
                </g>
                <rect id="Rectangle" fill="url(#linearGradient-7)" x="56" y="1472" width="745" height="81"></rect>
                <text id="LOADING.." font-family="AvenirNext-Bold, Avenir Next" font-size="25" font-weight="bold" letter-spacing="4.16666698" fill="#EAEDED">
                    <tspan x="338.387499" y="1520">LOADING..</tspan>
                </text>
                <g id="Group-7" transform="translate(128.000000, 402.000000)">
                    <g id="Group-5">
                        <g id="Group-3">
                            <g id="Group-2">
                                <g id="Group" transform="translate(0.000000, 79.316731)">
                                    <path d="M226.810348,23.0499523 C226.810348,23.0499523 230.172217,24.3474102 235.885809,19.7811438 C241.599401,15.2148773 252.161443,0.397222793 263.156186,0.397222793 C281.215593,-1.49871176 290.599932,10.4941041 290.599932,10.4941041 C290.599932,10.4941041 298.204026,16.4893362 296.819327,28.6779363 C296.004942,35.8464258 282.185161,50.5046341 278.454422,56.7985555 C274.723683,63.0924769 272.336627,66.919555 272.336627,72.5048668 C272.336627,78.0901786 274.431975,86.3443432 274.431975,86.3443432 C274.431975,86.3443432 281.783932,113.398665 267.837762,113.398665 C253.995622,112.479353 257.604348,101.277205 261.429976,96.4481938 C265.255605,91.6191824 268.852155,90.4067957 278.454422,90.3230922 C288.056689,90.2393886 302.515405,90.4266379 315.30219,99.1295315 C328.088975,107.832425 336.944403,127.025544 345.303094,131.568706 C353.661785,136.111868 478.275683,157.427395 519.556192,178.593418 C550.690733,197.028097 544.488533,218.727467 544.488533,218.727467 C544.185943,220.912044 542.157101,222.762251 539.953341,222.855908 C539.953341,222.855908 519.84217,223.797467 503.759529,223.797467 C487.676888,223.797467 442.925062,224.862394 442.925062,224.862394 L227.54149,224.862394" id="Path-32" stroke="#000000" stroke-width="4" stroke-linecap="round"></path>
                                    <path d="M273.842992,89.4556037 C273.842992,89.4556037 242.102458,86.5241667 225.62728,96.3492099 C209.152103,106.174253 212.959331,112.499992 197.842509,129.296677 C182.725687,146.093362 33.1902051,168.913768 19.6433619,182.711476 C7.52524497,190.689186 -3.34547054,210.4926 2.40215958,221.301741 C7.12787471,228.107581 25.1867994,227.229498 38.5161093,227.229498 C51.8454192,227.229498 65.8130592,226.53867 79.4267092,225.677457 C94.5572491,224.720285 141.125594,224.02362 141.125594,224.02362" id="Path-33" stroke="#000000" stroke-width="4" stroke-linecap="round"></path>
                                    <text id="weather-watcher" font-family="SwistblnkMonthoers, Swistblnk Monthoers" font-size="45" font-weight="normal" letter-spacing="-0.360000014" fill="#000000">
                                        <tspan x="151.763439" y="194.873161">weather watcher</tspan>
                                    </text>
                                    <path d="M513.824244,248.825484 C513.375475,249.143231 512.934032,249.843876 512.885921,250.382823 C512.885921,250.382823 512.084975,252.676062 514.910083,261.695667 C517.73519,270.715271 525.782047,277.096539 525.782047,277.096539 C525.782047,277.096539 559.889722,293.099944 594.541964,287.467859 C615.663186,284.106985 626.103875,261.942473 626.103875,261.942473 C626.351037,261.456094 626.230937,260.742253 625.850221,260.342966 C625.850221,260.342966 621.283939,256.062357 619.224605,249.400816 C617.165272,242.739274 612.435274,235.115629 612.435274,235.115629 C612.14941,234.640566 611.749434,234.663433 611.526594,235.174076 C611.526594,235.174076 604.702516,252.813729 588.754746,257.389275 C559.957433,261.462195 552.410498,252.414165 537.426741,246.475782 C533.356304,244.862581 530.219094,244.192153 523.98454,244.939081 C517.749986,245.686008 513.824244,248.825484 513.824244,248.825484 Z" id="Path-34" stroke="#000000" stroke-width="4" fill="#7EB1AC"></path>
                                    <ellipse id="Oval" stroke="#000000" stroke-width="4" fill="#D8D8D8" cx="528.092958" cy="257.072377" rx="6.18169014" ry="6.18387161"></ellipse>
                                    <path d="M521.969807,258.182665 C535.200009,248.708136 521.279849,226.971405 509.556618,222.047986 C500.942128,218.430149 495.12215,221.753972 496.977757,231.507822 C497.96843,236.715215 500.180896,241.671257 502.635176,246.36927 C505.917859,252.653021 507.831368,252.482936 512.829186,254.893449" id="Path-35" stroke="#000000" stroke-width="4"></path>
                                </g>
                                <g id="noun_1021725_cc" transform="translate(241.969014, 0.000000)" fill-rule="nonzero" fill="#000000">
                                    <path d="M59.1331648,52.8659184 C59.1216845,52.8129138 59.1022563,52.7643262 59.0872437,52.7130884 C59.0695817,52.6538999 59.0563352,52.593828 59.0324915,52.5364064 C59.0068817,52.4763345 58.9724408,52.4206796 58.9406493,52.3641414 C58.9168056,52.3199709 58.8973775,52.2740335 58.8700014,52.2333967 C58.8046521,52.1362215 58.7304718,52.0443469 58.6483437,51.9621897 L53.3506352,46.6626117 C52.6609352,45.9726684 51.5429324,45.9726684 50.8532324,46.6626117 C50.1635324,47.3525551 50.1635324,48.4709525 50.8532324,49.1608959 L53.1369254,51.4453947 L32.9554732,51.4453947 C32.4936127,49.4965918 31.0391493,47.929422 29.1537338,47.3128017 L29.1537338,44.3781129 C29.1537338,44.3710456 29.1519676,44.3648617 29.1519676,44.3586779 C40.7081958,43.7791608 49.900369,34.2224289 49.900369,22.5181268 C49.900369,16.9667769 47.831269,11.8986524 44.4242746,8.04256673 C43.6180056,17.4685539 35.0440014,24.217808 25.7352592,22.9130111 C23.091262,22.5419788 21.156393,20.3060675 21.1714056,17.6337516 C21.1802366,15.8068592 21.0839789,13.870424 21.0839789,12.5735778 C21.0839789,12.2246308 21.0513042,11.8836344 21.0045,11.5470551 L24.4397535,11.5470551 C25.8968662,11.5470551 27.0890493,10.3544513 27.0890493,8.89682442 C27.0890493,7.43919755 25.8968662,6.24659373 24.4397535,6.24659373 L21.0230451,6.24659373 L21.6668239,5.1299632 C22.3953803,3.86756999 21.9591296,2.23856152 20.6971817,1.50974808 L20.6971817,1.50974808 C19.4352338,0.780051233 17.8076831,1.21645589 17.0782437,2.47973252 L16.6764338,3.17497637 L16.6764338,2.65023069 C16.6764338,1.19348722 15.4842507,0 14.027138,0 C12.5700254,0 11.3778423,1.19348722 11.3778423,2.65023069 L11.3778423,5.3976365 C9.0941493,6.10348128 7.26790141,7.8756022 6.48547606,10.1256481 L4.54707465,8.71219169 C3.75758451,8.13797504 2.65371127,8.31200685 2.07969718,9.09912537 C1.5056831,9.8880107 1.67877042,10.9931569 2.46649437,11.5673735 L5.10077746,13.4879074 L2.4461831,15.6672804 C1.6920169,16.2856676 1.58162958,17.3996479 2.20156479,18.1531968 C2.55127183,18.5790005 3.05728732,18.7989697 3.56771831,18.7989697 C3.96158028,18.7989697 4.35897465,18.668225 4.68748732,18.3979014 L6.07130282,17.2618359 L6.07130282,19.5348504 C6.07130282,20.5074851 6.17639155,21.4801197 6.17639155,22.5163599 C6.17639155,33.7807238 14.6921113,43.0529975 25.6337028,44.2509018 C25.6301704,44.2933055 25.6204563,44.3339424 25.6204563,44.3772295 L25.6204563,47.3039676 C23.7244437,47.914404 22.2585,49.4877577 21.7948732,51.4453947 L12.0587113,51.4453947 L9.6540338,47.2801155 C9.16479718,46.4346919 8.08476761,46.1449334 7.24140845,46.6334592 C6.3962831,47.1219851 6.10750986,48.2023958 6.59498028,49.046936 L7.97879577,51.4453947 L6.31857042,51.4453947 L3.91389296,47.2801155 C3.42553944,46.4346919 2.34550986,46.1449334 1.50126761,46.6334592 C0.656142254,47.1219851 0.367369014,48.2023958 0.854839437,49.046936 L2.23865493,51.4453947 L1.76619718,51.4453947 C0.791256338,51.4453947 0,52.2369303 0,53.2122152 C0,54.1875001 0.791256338,54.9790357 1.76619718,54.9790357 L2.1291507,54.9790357 L0.854839437,57.1875612 C0.367369014,58.0329848 0.656142254,59.1133955 1.50126761,59.601038 C1.77944366,59.7618186 2.08322958,59.8377919 2.3826,59.8377919 C2.99282113,59.8377919 3.58626338,59.5215311 3.91389296,58.9543817 L6.2081831,54.9790357 L7.86929155,54.9790357 L6.59498028,57.1875612 C6.10750986,58.0329848 6.3962831,59.1133955 7.24140845,59.601038 C7.51958451,59.7618186 7.82337042,59.8377919 8.12274085,59.8377919 C8.73296197,59.8377919 9.32640423,59.5215311 9.6540338,58.9543817 L11.9483239,54.9790357 L22.079231,54.9790357 C22.7230099,56.5197031 24.0202817,57.721141 25.6222225,58.2370526 L25.6222225,79.2737004 C25.6222225,80.2489853 26.4134789,81.0405208 27.3884197,81.0405208 C28.3633606,81.0405208 29.1546169,80.2489853 29.1546169,79.2737004 L29.1546169,58.2264517 C30.7450775,57.706123 32.0326352,56.5117524 32.6737648,54.9781522 L53.5802408,54.9781522 L50.8549986,57.7043562 C50.1652986,58.3942996 50.1652986,59.512697 50.8549986,60.2026403 C51.2002901,60.5480537 51.6515535,60.7203187 52.1037,60.7203187 C52.5558465,60.7203187 53.0071099,60.5480537 53.3524014,60.2026403 L58.650993,54.902179 C59.0528028,54.5002273 59.2135268,53.9551632 59.1481775,53.4321843 C59.1702549,53.2431346 59.1702549,53.0532014 59.1331648,52.8659184 Z M13.2879845,14.7450001 C12.3050958,14.7450001 11.5032423,13.9428637 11.5032423,12.9596281 C11.5032423,11.9763925 12.3042127,11.174256 13.2879845,11.174256 C14.2699901,11.174256 15.0718437,11.9763925 15.0718437,12.9596281 C15.0718437,13.9428637 14.2708732,14.7450001 13.2879845,14.7450001 Z M27.3751732,54.9781522 C26.1573803,54.9781522 25.1674268,53.986966 25.1674268,52.7687433 C25.1674268,51.5505205 26.1573803,50.5602177 27.3751732,50.5602177 C28.5929662,50.5602177 29.5829197,51.5505205 29.5829197,52.7687433 C29.5829197,53.986966 28.5929662,54.9781522 27.3751732,54.9781522 Z" id="Shape"></path>
                                </g>
                            </g>
                            <path d="M117.477367,315.317035 C117.079669,314.283946 117.621214,313.247966 118.71516,312.996105 C118.71516,312.996105 131.463188,310.07479 149.52192,305.790631 C167.580651,301.506471 185.070168,297.177332 198.791394,295.052109 C227.621856,290.586678 233.646915,294.370498 233.646915,294.370498 C234.680277,294.746941 236.071814,295.763503 236.738636,296.642113 C236.738636,296.642113 242.773704,304.148089 247.210508,313.446462 C251.647312,322.744835 257.799858,342.105827 259.222079,352.885929 C263.011414,381.608203 258.120382,426.618097 259.222079,468.151471 C260.323775,509.684844 266.939654,525.1336 267.630669,531.696817 C269.402228,548.522981 279.394548,556.714844 279.394548,556.714844 C280.184851,557.465525 280.098923,558.582041 279.174937,559.209099 C279.174937,559.209099 247.210508,582.291864 208.611948,585.672804 C170.013387,589.053745 135.711169,582.632346 135.711169,582.632346 C134.620523,582.444303 133.55744,581.405854 133.342625,580.325642 C133.342625,580.325642 124.572616,537.617252 124.572616,513.753428 C124.572616,483.519936 130.73003,443.110505 129.498556,396.112969 C128.991088,376.746132 129.226293,359.849283 126.928526,346.619546 C124.630758,333.38981 117.477367,315.317035 117.477367,315.317035 Z" id="Path-43" fill="#DA4756" transform="translate(198.639920, 439.765084) rotate(10.000000) translate(-198.639920, -439.765084) "></path>
                            <polyline id="Path-44" stroke="#F36C7B" stroke-width="2" stroke-linecap="round" points="145.002903 349.897858 150.259113 336.24888 163.247483 349.897858 179.073064 334.069859 193.494902 348.4939 208.621362 333.365128 222.944281 345.168365 237.363402 330.747041 250.763173 344.148859 264.797903 330.111984 270.524699 343.260524"></polyline>
                            <polyline id="Path-44" stroke="#F36C7B" stroke-width="2" stroke-linecap="round" transform="translate(180.678117, 528.899770) rotate(6.000000) translate(-180.678117, -528.899770) " points="111.636836 524.321727 117.983663 539.222898 129.453812 524.713537 142.442183 538.362516 158.267764 522.534516 172.689601 536.958557 187.816061 521.829785 202.13898 533.633022 216.558101 519.211698 229.957872 532.613516 243.992602 518.576641 249.719398 531.725181"></polyline>
                            <path d="M110.819394,556.330567 C110.819394,556.330567 149.621446,565.640709 180.986384,565.640709 C212.351322,565.640709 251.153374,560.445298 251.153374,560.445298" id="Path-45" stroke="#F36C7B" stroke-width="2" stroke-linecap="round"></path>
                            <path d="M118.746486,478.515617 C118.746486,478.515617 157.548538,487.825759 188.913476,487.825759 C220.278414,487.825759 251.159072,483.170688 251.159072,483.170688" id="Path-45" stroke="#F36C7B" stroke-width="2" stroke-linecap="round"></path>
                            <path d="M130.431814,429.538479 C130.431814,429.538479 169.564217,438.663195 200.929155,438.663195 C232.294093,438.663195 259.940785,434.100837 259.940785,434.100837" id="Path-45" stroke="#F36C7B" stroke-width="2" stroke-linecap="round"></path>
                            <path d="M139.500841,380.561341 C139.500841,380.561341 178.633244,389.686057 209.998182,389.686057 C241.363121,389.686057 269.900822,385.123699 269.900822,385.123699" id="Path-45" stroke="#F36C7B" stroke-width="2" stroke-linecap="round"></path>
                            <path d="M110.486822,567.03986 C110.237648,576.630116 109.415379,586.222607 109.739301,595.810628 C110.462425,617.21492 115.144858,576.354385 110.850322,566.774523 L110.486822,567.03986 Z" id="Path-46" stroke="#DA4756" fill="#DA4756"></path>
                            <path d="M183.890253,583.661089 C183.641079,593.251345 182.818809,602.843835 183.142731,612.431857 C183.865855,633.836149 188.548288,592.975614 184.253753,583.395752 L183.890253,583.661089 Z" id="Path-46" stroke="#DA4756" fill="#DA4756"></path>
                            <path d="M159.984882,581.476087 C159.735708,591.066342 158.913438,600.658833 159.237361,610.246854 C159.960484,631.651146 164.642918,590.790611 160.348382,581.210749 L159.984882,581.476087 Z" id="Path-46" stroke="#DA4756" fill="#DA4756"></path>
                            <path d="M204.770596,584.753591 C204.521422,594.343847 203.699153,603.936337 204.023075,613.524358 C204.746199,634.92865 209.428632,594.068115 205.134097,584.488254 L204.770596,584.753591 Z" id="Path-46" stroke="#DA4756" fill="#DA4756" transform="translate(205.437017, 602.066384) rotate(-8.000000) translate(-205.437017, -602.066384) "></path>
                            <path d="M237.810946,572.420678 C238.343744,589.708786 236.918813,590.260898 245.693205,608.74662 C247.826199,613.24037 242.672139,599.244353 241.722874,594.361376 C240.245975,586.764281 239.526743,579.039283 238.428678,571.378237 L237.810946,572.420678 Z" id="Path-47" stroke="#DA4756" fill="#DA4756"></path>
                            <path d="M123.825825,573.759946 C117.836969,646.810962 125.987918,589.427283 125.380046,572.569266 C125.362472,572.081903 124.627208,573.189256 124.25079,573.499252 L123.825825,573.759946 Z" id="Path-48" stroke="#DA4756" fill="#DA4756"></path>
                            <path d="M129.684135,573.460215 C127.909591,583.192885 148.184199,653.70934 131.025806,573.028028 L129.684135,573.460215 Z" id="Path-49" stroke="#DA4756" fill="#DA4756" transform="translate(133.770181, 592.150697) rotate(13.000000) translate(-133.770181, -592.150697) "></path>
                            <path d="M167.915842,581.107725 C166.141298,590.840395 186.415906,661.35685 169.257513,580.675538 L167.915842,581.107725 Z" id="Path-49" stroke="#DA4756" fill="#DA4756" transform="translate(172.001888, 599.798207) rotate(13.000000) translate(-172.001888, -599.798207) "></path>
                            <path d="M190.854866,578.922722 C189.080322,588.655392 209.35493,659.171847 192.196537,578.490535 L190.854866,578.922722 Z" id="Path-49" stroke="#DA4756" fill="#DA4756" transform="translate(194.940912, 597.613204) rotate(9.000000) translate(-194.940912, -597.613204) "></path>
                            <path d="M247.577391,565.709654 C245.802847,575.442324 266.077455,645.958779 248.919062,565.277467 L247.577391,565.709654 Z" id="Path-49" stroke="#DA4756" fill="#DA4756" transform="translate(251.663437, 584.400136) rotate(-19.000000) translate(-251.663437, -584.400136) "></path>
                            <path d="M144.652188,574.348704 C144.575266,583.873956 144.152591,593.402693 144.421422,602.924461 C144.486712,605.237009 144.858459,607.581766 145.651819,609.754904 C145.999431,610.707067 147.079321,612.757832 147.726587,611.977829 C148.269728,611.323305 146.860005,608.587352 146.52731,605.629728 C146.194616,602.672104 146.606803,597.551113 146.52731,596.452835 C146.26324,592.804392 146.621518,590.283627 146.52731,588.140663 C146.433103,585.9977 145.787316,581.230425 144.992488,574.20299 L144.652188,574.348704 Z" id="Path-50" stroke="#DA4756" fill="#DA4756"></path>
                            <path d="M214.098777,576.986457 C214.021855,586.511709 213.59918,596.040447 213.868011,605.562214 C213.933301,607.874763 214.305048,610.219519 215.098409,612.392657 C215.44602,613.344821 216.52591,615.395585 217.173176,614.615583 C217.716317,613.961058 216.306594,611.225105 215.9739,608.267481 C215.641206,605.309857 216.053392,600.188866 215.9739,599.090588 C215.70983,595.442146 216.068107,592.92138 215.9739,590.778417 C215.879692,588.635453 215.233906,583.868178 214.439077,576.840744 L214.098777,576.986457 Z" id="Path-50" stroke="#DA4756" fill="#DA4756" transform="translate(215.537955, 595.814818) rotate(-13.000000) translate(-215.537955, -595.814818) "></path>
                            <path d="M261.610537,565.558415 C261.610537,565.558415 261.173582,563.859984 261.239556,564.7422 C261.30553,565.624416 261.335891,581.438036 261.510019,587.198994 C261.561433,588.899984 261.854166,590.624665 262.478899,592.223113 C262.752627,592.923475 263.602989,594.43191 264.11268,593.858181 C264.540378,593.376747 263.430288,591.364322 263.168307,589.188848 C262.906326,587.013374 263.230903,583.246638 263.168307,582.438803 C262.960364,579.755198 263.242491,577.901054 263.168307,576.324802 C263.094123,574.748549 261.610537,565.558415 261.610537,565.558415 Z" id="Path-50" stroke="#DA4756" fill="#DA4756" transform="translate(262.721213, 579.236889) rotate(-217.000000) translate(-262.721213, -579.236889) "></path>
                            <path d="M223.502203,580.974717 C223.502203,592.770235 226.990486,602.741782 233.558385,612.563081 C234.870454,614.525082 232.456165,608.724647 231.954103,606.418274 C231.202238,602.964351 228.463217,598.224429 227.434406,594.842672 C225.637599,588.936477 224.631532,584.490137 222.007248,578.902323" id="Path-51" stroke="#DA4756" fill="#DA4756"></path>
                        </g>
                    </g>
                    <g id="Group-3" transform="translate(335.720890, 409.079200) scale(1, -1) translate(-335.720890, -409.079200) translate(316.720890, 284.579200)">
                        <g id="umbrella" transform="translate(27.119553, 0.281333)" fill="#2F2F2F">
                            <g id="Group">
                                <g id="Group-2">
                                    <rect id="Rectangle" x="0.135397541" y="0.470087737" width="7.6790869" height="177.528406"></rect>
                                </g>
                            </g>
                        </g>
                        <path d="M24.0396542,181.989228 C24.0396542,178.127417 27.1722638,174.9968 31.0371985,174.9968 L30.1902794,174.9968 C34.0549164,174.9968 37.1878237,178.12116 37.1878237,182.003165 L37.1878237,223.180786 C37.1878237,223.180786 38.7632267,248.776495 20.1715347,248.776495 C8.73910392,248.776495 5.0966335,243.035667 2.86394287,238.13505 C0.631252239,233.234433 0.920109721,226.084799 0.920109721,226.084799 C0.844544401,222.772119 3.46335027,220.086661 6.78937531,220.086661 L7.73011605,220.086661 C10.4889852,220.086661 12.9294722,222.314847 13.1783786,225.074343 C13.1783786,225.074343 13.3095383,226.428934 13.3049552,226.586495 C13.2658295,227.931607 13.3658774,234.345794 18.8328847,234.345794 C24.9402789,234.345794 24.0396542,225.095944 24.0396542,225.095944 L24.0396542,181.989228 Z" id="Path-4" fill="#CCCCCC"></path>
                    </g>
                    <polygon id="Rectangle-2" fill="#000000" points="313.51625 302.024821 336.062482 302.024821 335.728079 306.255224 313.5 306.255224"></polygon>
                    <g id="Group-6" transform="translate(281.291096, 388.643200)">
                        <path d="M10.5829256,30.5273884 L14.8878357,6.39473636 L35.6616982,25.7929371 L51.3843791,5.23431502 L69.4463399,26.9903289 L86.4184003,4.80198639 L102.905221,25.7703021 L124.623109,6.60750542 L133.569685,29.0843861 C133.569685,29.0843861 103.128752,39.1376982 88.147534,39.3134727 C81.3983123,39.3926613 65.2157153,39.763798 49.2186854,37.7887702 C33.2216555,35.8137424 10.5829256,30.5273884 10.5829256,30.5273884 Z" id="Path-54" fill="#78ADA8"></path>
                        <path d="M0.327600143,6.41816933 C0.14667158,6.20873172 0.0936148681,6.23945162 0.208972161,6.48841257 C0.208972161,6.48841257 20.7730709,50.163174 37.5442301,113.546824 C54.3153893,176.930475 70.5595402,282.09076 70.5595402,282.09076 C70.5595402,282.09076 97.1527806,162.111477 108.273659,113.546824 C119.394537,64.9821721 147.190185,4.50386042 147.190185,4.50386042 C147.302192,4.25847823 147.234578,4.20349495 147.020717,4.39781306 L118.321766,30.4742706 C118.116165,30.6610844 117.860737,30.5993127 117.758224,30.3530452 L105.314489,0.459481737 C105.208854,0.205716981 105.011237,0.196762734 104.875321,0.435575568 L87.8347191,30.3769514 C87.6978077,30.6175131 87.4780862,30.6157642 87.3461161,30.3769514 L70.8002432,0.435575568 C70.6673066,0.195013825 70.4651492,0.194532304 70.3385499,0.454321812 C70.3385499,0.454321812 55.8450567,30.4575216 51.6971466,30.812527 C50.0415135,30.9542269 31.1217263,0.414126165 31.1217263,0.414126165 C30.9797238,0.1854106 30.7991249,0.213214266 30.7159629,0.483991219 L21.5499974,30.3285357 C21.4679029,30.5958367 21.2532607,30.6411006 21.0737521,30.4333066 L0.327600143,6.41816933 Z" id="Path-52" fill="url(#linearGradient-8)"></path>
                        <path d="M118.069172,30.7327129 C118.069172,30.7327129 104.199614,80.4751501 96.8209913,121.322961 C89.4423687,162.170773 71.194227,281.511397 71.194227,281.511397" id="Path-53" stroke="#2F2F2F"></path>
                        <path d="M70.2321429,281.417294 C70.2321429,281.417294 79.3514431,182.507794 82.5942206,132.818216 C85.8369981,83.1286375 86.9714755,30.7327129 86.9714755,30.7327129" id="Path-53" stroke="#2F2F2F"></path>
                        <path d="M70.035359,281.356071 C70.035359,281.356071 61.6963666,183.785729 57.0292293,123.200083 C52.362092,62.614436 50.9904599,30.7327129 50.9904599,30.7327129" id="Path-53" stroke="#2F2F2F"></path>
                        <path d="M70.5999538,281.401958 C70.5999538,281.401958 54.5853264,175.303434 43.4767381,119.059051 C32.3681498,62.8146687 21.1658513,30.7327129 21.1658513,30.7327129" id="Path-53" stroke="#2F2F2F"></path>
                    </g>
                </g>
            </g>
        </g>
    </g>
</svg>